<?xml version="1.0" encoding="utf-8"?>
<!-- Generator: Adobe Illustrator 18.1.0, SVG Export Plug-In . SVG Version: 6.00 Build 0)  -->
<!DOCTYPE svg PUBLIC "-//W3C//DTD SVG 1.1//EN" "http://www.w3.org/Graphics/SVG/1.1/DTD/svg11.dtd">
<svg version="1.1" id="Layer_1" xmlns="http://www.w3.org/2000/svg" xmlns:xlink="http://www.w3.org/1999/xlink" x="0px" y="0px"
	 viewBox="0 0 205.2 230.1" enable-background="new 0 0 205.2 230.1" xml:space="preserve">
<rect x="0" y="0" fill="#464747" width="205.2" height="230.1"/>
<rect x="138.2" y="27.4" transform="matrix(0.9949 0.101 -0.101 0.9949 7.787 -16.5392)" fill="#375370" stroke="#464747" stroke-width="3" stroke-miterlimit="10" width="57.8" height="82.4"/>
<text transform="matrix(0.9949 0.1011 -0.1011 0.9949 151.5572 88.756)" fill="#FCFCFC" font-family="'TradeGothicLTStd-BdCn20'" font-size="68.7917">5</text>
<rect x="106.4" y="46.6" transform="matrix(0.9974 7.188344e-02 -7.188344e-02 0.9974 6.6635 -9.5017)" fill="#375370" stroke="#464747" stroke-width="3" stroke-miterlimit="10" width="57.8" height="82.4"/>
<text transform="matrix(0.9974 7.188000e-02 -7.188000e-02 0.9974 120.3687 108.379)" fill="#FCFCFC" font-family="'TradeGothicLTStd-BdCn20'" font-size="68.7917">4</text>
<rect x="70.1" y="66.5" transform="matrix(0.9991 4.212718e-02 -4.212718e-02 0.9991 4.6254 -4.0749)" fill="#375370" stroke="#464747" stroke-width="3" stroke-miterlimit="10" width="57.8" height="82.4"/>
<text transform="matrix(0.9991 4.213000e-02 -4.213000e-02 0.9991 84.6047 128.7595)" fill="#FCFCFC" font-family="'TradeGothicLTStd-BdCn20'" font-size="68.7917">3</text>
<rect x="31.4" y="83.6" transform="matrix(0.9999 -1.287860e-02 1.287860e-02 0.9999 -1.6024 0.7872)" fill="#375370" stroke="#464747" stroke-width="3" stroke-miterlimit="10" width="57.8" height="82.4"/>
<text transform="matrix(0.9999 -1.288000e-02 1.288000e-02 0.9999 47.182 146.6231)" fill="#FCFCFC" font-family="'TradeGothicLTStd-BdCn20'" font-size="68.7917">2</text>
<rect x="5.1" y="128.7" fill="#375370" stroke="#464747" stroke-width="3" stroke-miterlimit="10" width="57.8" height="82.4"/>
<text transform="matrix(1 0 0 1 20.6093 191.5156)" fill="#FCFCFC" font-family="'TradeGothicLTStd-BdCn20'" font-size="68.7917">1</text>
</svg>
