<?xml version="1.0" encoding="utf-8"?>
<!-- Generator: Adobe Illustrator 18.1.0, SVG Export Plug-In . SVG Version: 6.00 Build 0)  -->
<!DOCTYPE svg PUBLIC "-//W3C//DTD SVG 1.1//EN" "http://www.w3.org/Graphics/SVG/1.1/DTD/svg11.dtd">
<svg version="1.1" id="Layer_1" xmlns="http://www.w3.org/2000/svg" xmlns:xlink="http://www.w3.org/1999/xlink" x="0px" y="0px"
	 viewBox="0 0 205.2 230.1" enable-background="new 0 0 205.2 230.1" xml:space="preserve">
<rect x="0" y="0" fill="#464747" width="205.2" height="230.1"/>
<rect x="138.2" y="39.9" transform="matrix(0.9949 0.101 -0.101 0.9949 9.0479 -16.4753)" fill="#375370" stroke="#464747" stroke-width="3" stroke-miterlimit="10" width="57.8" height="82.4"/>
<g>
	<path fill="#FCFCFC" d="M164.1,88.1l-0.4,4c-0.3,2.7,1.1,4.5,3.3,4.7c2.7,0.3,4.3-1.2,4.8-5.6l1.1-11.2c0.3-3.2-1.2-4.7-3.1-4.9
		c-2.6-0.3-4,1.3-5,3.3l-6.6-0.7c1.1-7.6,2-13.6,3.2-25.3l20.6,2.1l-1,7L167.8,60l-1.6,10.6l0.1,0.2c2.4-2.3,4.2-2.5,6.8-2.2
		c6.5,0.7,8.6,5.6,7.7,13.9l-0.7,6.8c-1.1,10.4-4.8,15-13.1,14.2c-6.8-0.7-11.9-4.2-11-12.5l0.4-3.8L164.1,88.1z"/>
</g>
<rect x="106.4" y="59.1" transform="matrix(0.9974 7.188344e-02 -7.188344e-02 0.9974 7.5605 -9.4694)" fill="#375370" stroke="#464747" stroke-width="3" stroke-miterlimit="10" width="57.8" height="82.4"/>
<g>
	<path fill="#FCFCFC" d="M137.1,110.1l-14.8-1.1l0.5-6.3l16.7-30.2l8.2,0.6l-2.3,31.3l4.5,0.3l-0.5,6.3l-4.5-0.3l-0.9,11.9l-7.8-0.6
		L137.1,110.1z M137.7,103.8l1.4-19.3l-0.1,0l-9.7,18.7L137.7,103.8z"/>
</g>
<rect x="70.1" y="79" transform="matrix(0.9991 4.212718e-02 -4.212718e-02 0.9991 5.1511 -4.0638)" fill="#375370" stroke="#464747" stroke-width="3" stroke-miterlimit="10" width="57.8" height="82.4"/>
<g>
	<path fill="#FCFCFC" d="M96.1,127.3l-0.1,3.4c-0.1,3.1,1,5,3.6,5.1c2.5,0.1,4.1-1.5,4.3-5.7l0.2-3.8c0.2-5.4-1.8-7.1-7-7.3l0.3-6.7
		c5,0.2,7-1.4,7.3-7.3c0.2-4.7-0.6-6.6-3.2-6.7c-2.4-0.1-3.9,1-4.1,4.9l-0.1,2.1l-7.7-0.3l0.1-2.3c0.3-6.7,4.7-11.4,12.1-11.1
		c7.4,0.3,10.8,6.6,10.5,13.2c-0.2,5.8-1.3,9-5.8,11.2c4.9,2.8,5.9,5.8,5.6,12.6c-0.4,9.9-4.5,14.4-13,14
		c-7.1-0.3-11.2-4.1-10.8-12.6l0.1-3L96.1,127.3z"/>
</g>
<rect x="31.4" y="96.1" transform="matrix(0.9999 -1.287860e-02 1.287860e-02 0.9999 -1.7631 0.7882)" fill="#375370" stroke="#464747" stroke-width="3" stroke-miterlimit="10" width="57.8" height="82.4"/>
<g>
	<path fill="#FCFCFC" d="M50.2,159.1l-0.1-6.7c10.4-15.6,16.1-24.2,16-31.5c-0.1-3.9-1.6-5.6-3.9-5.6c-2.8,0-4.1,2.2-4.1,5.2l0,3.4
		L50,124l0-2.3c-0.1-7.3,4.5-13,12.5-13.1c7-0.1,11.6,5.1,11.7,10.9c0.1,7.8-2.3,13.6-15.4,32.5l15.1-0.2l0.1,7L50.2,159.1z"/>
</g>
<rect x="5.1" y="141.1" fill="#375370" stroke="#464747" stroke-width="3" stroke-miterlimit="10" width="57.8" height="82.4"/>
<g>
	<path fill="#FCFCFC" d="M32.8,164.6H26V160c3.8-1.9,7.3-4,10.1-6.4h4.3V204h-7.7V164.6z"/>
</g>
<g>
	<polygon fill="#4C719E" points="1,30.9 75.2,1 164.1,1 1,121.9 	"/>
	<path fill="#464747" d="M161.1,2L2,120V31.6L75.4,2H161.1 M167.2,0H75L0,30.3v93.7L167.2,0L167.2,0z"/>
</g>
<g>
	<g>
		<path fill="#FCFCFC" d="M13.2,34.3l3.2-1.8l2.6,4.7c3.3-1.1,7-0.8,10.1,0.8L27,43.7c-1.5-0.9-3.2-1.8-5.1-1.2L28,53.5
			c6.1,0.4,11.9,1.1,15.3,7.1c3,5.3,2.4,11.6-2.9,15.2l3.4,6.2l-3.2,1.8l-3.4-6.2c-3.9,1.7-8.4,0.7-12-1.3l2.6-5.8
			c1.7,1.5,4.2,2.5,6.6,1.9l-6.9-12.6c-5.5-0.2-11.4-1.3-14.2-6.5c-2.7-5-2.2-10.8,2.7-14.4L13.2,34.3z M18.7,44.2
			c-1.4,1.5-1.5,3.6-0.5,5.4c1.3,2.4,3.1,3.3,5.6,3.9L18.7,44.2z M37.5,70.7c1.7-2.1,1.6-4.2,0.2-6.6c-1.4-2.6-3.4-3.3-6.1-3.9
			L37.5,70.7z"/>
		<path fill="#FCFCFC" d="M52.9,68.9l-2.9-5.2c1.6-16.6,2.4-25.7-0.7-31.4c-1.7-3-3.6-3.7-5.4-2.7c-2.1,1.2-2.3,3.4-1,5.8l1.4,2.6
			l-6.3,3.5l-1-1.8C34,34,35.2,27.6,41.4,24.2c5.5-3,11.2-0.9,13.7,3.6c3.4,6.1,3.9,11.7,1.6,31.9l11.7-6.5l3,5.5L52.9,68.9z"/>
		<path fill="#FCFCFC" d="M61,27.1c-4-7.3-3.1-12.1,3.6-15.8c6.6-3.7,11.2-1.9,15.3,5.4l10.2,18.5c4,7.3,3.1,12.1-3.6,15.8
			c-6.6,3.7-11.2,1.9-15.3-5.4L61,27.1z M72.6,18.6c-1.4-2.5-3.2-3.1-5.1-2c-2,1.1-2.5,2.9-1.1,5.4l12.1,21.8c1.4,2.5,3.2,3.1,5.1,2
			c2-1.1,2.5-2.9,1.1-5.4L72.6,18.6z"/>
	</g>
</g>
</svg>
