<?xml version="1.0" encoding="utf-8"?>
<!-- Generator: Adobe Illustrator 18.1.0, SVG Export Plug-In . SVG Version: 6.00 Build 0)  -->
<!DOCTYPE svg PUBLIC "-//W3C//DTD SVG 1.1//EN" "http://www.w3.org/Graphics/SVG/1.1/DTD/svg11.dtd">
<svg version="1.1" id="Layer_1" xmlns="http://www.w3.org/2000/svg" xmlns:xlink="http://www.w3.org/1999/xlink" x="0px" y="0px"
	 viewBox="0 0 1119.8 341.2" enable-background="new 0 0 1119.8 341.2" xml:space="preserve">
<path fill="#F9F9FA" d="M296.1,251.8H60.7L178.4,38.6L296.1,251.8z M72.5,244.8h211.7L178.4,53L72.5,244.8z"/>
<path fill="#F9F9FA" d="M233.8,250.8H124.9V139.3h108.9V250.8z M129.9,245.8h98.9V144.3h-98.9V245.8z"/>
<path fill="#F9F9FA" d="M179.3,250.8c-30,0-54.4-25-54.4-55.8c0-30.7,24.4-55.8,54.4-55.8c30,0,54.4,25,54.4,55.8
	C233.8,225.7,209.4,250.8,179.3,250.8z M179.3,144.3c-27.3,0-49.4,22.8-49.4,50.8c0,28,22.2,50.8,49.4,50.8
	c27.3,0,49.4-22.8,49.4-50.8C228.8,167,206.6,144.3,179.3,144.3z"/>
<g>
	<path fill="#F9F9FA" d="M95.9,55.2c-0.8,1.8-2.1,3.6-4,5.4l-0.2-0.1c1.5-2.1,2.3-3.5,2.6-4.2c0.5-1.5,0.4-3-0.6-4.4l-5.6-8.3
		c-0.5-0.5-1.2-0.7-2.1-0.6l-1.2,3.4l4.9,7.4l1.4,0.3l-1,3.5l-3.5-0.3l0.2-1.6l-6.2-9.3l-1.5,1l-1-1.5l1.6-1L78.6,43
		c-0.9-1.3-1.9-2.1-3.1-2.2l0-0.1c0.9-0.2,1.8-0.3,2.5-0.3l0.4-0.3c0.2-1.6,0.9-2.7,1.9-3.4c-0.4,1.3-0.2,2.5,0.5,3.6l3.5,5.3
		l2.2-5.9c1.9,0,3.4,0.7,4.3,2.1l4.8,7.3C97,50.7,97,52.8,95.9,55.2z"/>
	<path fill="#F9F9FA" d="M107.7,46.8c-1.8,0-3.1-0.7-3.9-2.3l-2.5,5.8l-0.2,0.1c-2.3-0.6-3.8-1.5-4.5-2.8c-1.1-2-1-4.4,0.1-7.4
		L93.1,37l0.4-0.2c1.2-0.5,2.2-1.6,2.7-3l5.4-1l0.5-1.2l0.1,0.1c-0.1,1.1,0,2,0.2,3l4.5,8.3c0.4,0.4,0.9,0.6,1.4,0.5l0.4-0.6
		l0.5,0.1L107.7,46.8z M99.4,36.2L93.8,37l3.3,2.9l4.2-0.2L99.4,36.2z M101.6,40.2l-4.2,0.2c0,1.4,0.2,2.6,0.7,3.6
		c0.8,1.4,2.1,2.4,4,3l1.3-3.3L101.6,40.2z"/>
	<path fill="#F9F9FA" d="M114.6,30.2l-2.9-1.1l-0.9,1.6l3.7,8.5l2.4,0.6l0.7-1.1l0.6,0.2l-1.9,3.9c-1.7-0.5-3.5-0.7-5.4-0.6
		c0.4-0.8,0.4-1.7-0.1-2.8l-2.9-6.6c-0.2-0.6-0.7-1-1.5-1.2l-0.4,0.6l-0.5-0.2l1.8-3.7c0.9,0.1,1.5,0.2,1.9,0.4
		c0.5,0.2,1,0.6,1.4,1.3l2.3-4l3.2,1.4L114.6,30.2z"/>
	<path fill="#F9F9FA" d="M132.9,33.8c-1.8,1.3-3.2,2.7-4.3,4.3c-2.3-0.7-4.7-0.9-7.1-0.6c0.5-0.8,0.5-1.8,0.1-2.9l-2.7-8.1
		c0.8-0.5,1.7-1.3,2.7-2.4l-5.3-1.3l-1.1-3.2l12.8,3c0.1-0.6,0.5-1.2,1-1.6c0,0.5,0,1,0.2,1.6L132.9,33.8z M126.4,25.3l-3.3-0.9
		l-0.9,1.1l3.1,9.3l4.3,0L126.4,25.3z"/>
	<path fill="#F9F9FA" d="M160.4,31c-2-0.6-3.5-0.9-4.4-0.8c-1.1,0.2-2.1,0.8-3.1,1.8c-1.8-1-4.1-1.6-6.7-1.9
		c0.6-0.7,0.8-1.7,0.6-2.9l-1.1-8.3c-1.2-1.1-1.9-2.1-2.1-3.1c-0.2-1.5,0.8-3.1,3-4.6l0.2,0.3c-0.9,1-1.2,1.8-1.1,2.5
		c0,0.2,0.6,0.9,1.6,2c1.1,1,1.7,2.1,1.8,3.1l4.4-4.3c1.6,0.9,2.6,2,2.9,3.4l4.4-4.4c1.8,1.2,2.8,2.3,3,3.5l1.4,10.2
		C163.3,28.4,161.7,29.5,160.4,31z M153,19.6c0-0.3-0.2-0.6-0.4-0.8c-0.1-0.1-0.5-0.4-1.2-1.1l-2.4,2.5l1.1,8
		c1.1,0.3,2.5,0.6,4.2,0.9L153,19.6z M160.7,18.6c-0.1-0.4-0.3-0.8-0.9-1.2c-0.2-0.2-0.4-0.3-0.8-0.6l-2.6,2.5l1.1,8.3
		c0.8,0.2,1.7,0.3,2.8,0.4c0.3,0,0.9,0.1,1.7,0.2L160.7,18.6z"/>
	<path fill="#F9F9FA" d="M173,30.2c-2-1.3-4.2-2.2-6.7-2.6c0.6-0.6,0.9-1.5,0.9-2.8l-0.2-8.5c2-0.6,3.7-1.6,5.1-3
		c2.3,1.4,4.3,2.2,5.9,2.3l0.3,11.7C176.1,28,174.4,29,173,30.2z M174.6,17.5l-4.3-1.5l0.3,9.9c0.8,0.3,1.7,0.6,2.6,0.9
		c0.7,0.2,1.2,0.4,1.6,0.5L174.6,17.5z"/>
	<path fill="#F9F9FA" d="M189.8,18.2l-2.1-2.2l-1.5,1l-0.5,9.3l1.9,1.6l1.1-0.7l0.4,0.5l-3.5,2.6c-1.3-1.3-2.9-2.2-4.5-3
		c0.7-0.5,1.1-1.3,1.1-2.5l0.4-7.2c0-0.6-0.2-1.2-0.8-1.7l-0.6,0.4l-0.4-0.4l3.2-2.5c0.7,0.4,1.2,0.8,1.5,1.2c0.3,0.4,0.6,1,0.6,1.8
		l3.8-2.6l2.2,2.7L189.8,18.2z"/>
	<path fill="#F9F9FA" d="M203.1,32c-0.8-0.8-1.2-2-1.3-3.7l-4,3.1c-1.9-1.4-3.5-2.4-4.9-3.1c0.7-0.5,1.1-1.3,1.3-2.4l1.3-9.6
		l-1.8-0.3l0.2-1.8l1.8,0.3l0.4-3.2c0.1-0.8-0.2-1.7-0.9-2.6c0.8,0.3,1.6,0.8,2.2,1.4l0.5,0c1.3-1,2.5-1.4,3.8-1.2
		c-1.2,0.5-1.9,1.5-2.2,3l-0.9,6.6l5.3-3.4l2.8,3.9c-0.8,0.4-2,1.3-3.8,2.5c0.8,0.8,1.4,1.8,1.7,2.8c0.1,0.4,0.2,1.3,0.3,2.7
		c0.1,1.1,0.3,2,0.6,2.5l0.7-0.3l0.4,0.5L203.1,32z M200.2,23.3l-2.4,1.4l-0.4,2.9l2,1.4l2.4-1.8C201.8,25.8,201.3,24.5,200.2,23.3z
		 M201.7,17.5l-3.2,2.2l-0.6,4.1l5.7-3.6L201.7,17.5z"/>
	<path fill="#F9F9FA" d="M227.8,38.2c-1.2-1.3-1.6-2.7-1.1-4.4l-5.9,2.2l-0.2-0.1c-1.2-2-1.5-3.8-1.1-5.2c0.7-2.1,2.5-3.8,5.4-5.1
		l-0.3-4.8l0.4,0.2c1.3,0.5,2.6,0.5,4-0.2l4.4,3.2l1.2-0.4l0,0.2c-0.8,0.7-1.5,1.4-2,2.2L230,35c0,0.6,0.2,1.1,0.6,1.4l0.7-0.1
		l0.3,0.4L227.8,38.2z M228.3,29.2l-3.1-2.9c-1,0.9-1.7,2-2.1,3c-0.5,1.5-0.3,3.2,0.7,4.9l3.3-1.3L228.3,29.2z M229.6,24.9l-4.5-3.5
		l0.2,4.4l3,2.9L229.6,24.9z"/>
	<path fill="#F9F9FA" d="M242.1,44c-1.2-1.7-1.2-2.9-0.4-4.8l3.4-7.9l-1-1.9l-3.1,0.7l-3.5,8.2l0.4,1.5l-3.3,1.1l-1.6-3.2l1.4-0.6
		l3.6-8.5c0.2-0.6,0.2-1.2-0.2-1.9l-0.7,0.1l-0.2-0.5l3.8-1.3c1.1,1.4,1.3,2.9,0.6,4.4c2.5-0.5,4.4-1.1,5.8-1.5l1.4,3.1l1.9-0.5
		l0.2,0.5c-0.8,0.4-1.6,0.9-2.4,1.4l-3.7,8.7c0,0.5,0.2,1,0.5,1.5l0.9-0.1l0.2,0.5L242.1,44z"/>
	<path fill="#F9F9FA" d="M258.2,49.3c-2.2-0.4-4.2-0.5-6.1-0.2c-1.1-2.2-2.5-4.1-4.4-5.7c0.9-0.2,1.6-0.8,2.2-1.9l4.1-7.5
		c0.9,0.2,2.1,0.4,3.6,0.4l-2.7-4.8l1.6-3l6.4,11.5c0.5-0.3,1.2-0.4,1.9-0.3c-0.4,0.4-0.7,0.7-1,1.2L258.2,49.3z M260,38.8l-1.6-3.1
		l-1.4,0l-4.7,8.6l2.9,3.2L260,38.8z"/>
	<path fill="#F9F9FA" d="M279,64.3c-2.1-0.8-4-1.2-6-1.2c-0.7-2.3-1.8-4.4-3.4-6.3c0.9,0,1.7-0.5,2.5-1.5l5.3-6.7
		c0.8,0.4,2,0.7,3.5,1l-1.8-5.2l2.1-2.7l4.4,12.4c0.6-0.2,1.2-0.2,1.9,0c-0.5,0.3-0.9,0.6-1.2,1L279,64.3z M282.6,54.3l-1.1-3.3
		l-1.4-0.2l-6.1,7.6l2.3,3.7L282.6,54.3z"/>
	<path fill="#F9F9FA" d="M286.7,64.9l-2.6,2.7l1.3,3.1l2.8,0.6l0,0.6c-0.7-0.1-1.5-0.3-2.4-0.4l-3.8-0.6c-0.6-1.7-1.4-3.3-2.4-4.8
		c1,0,1.8-0.4,2.5-1.2l6.6-6.9c1.7,0.6,3.6,1.1,5.5,1.4l0.2,6.6C291.4,65.3,288.8,65,286.7,64.9z M291.5,59.8l-4.3,4.5l4.4,0.5
		L291.5,59.8z"/>
	<path fill="#F9F9FA" d="M300.5,68.8l-7.7,7l0.1,2.5l1.3,0.2l-0.1,0.6l-4.3-0.6c-0.2-2.1-0.5-3.9-1.1-5.2c0.9,0,1.8-0.3,2.6-1
		l6.8-6.2l-0.9-0.9l0.4-0.3l7.5-0.4l-3.3,3.1l2.5,2.8l-1.4,1.2L300.5,68.8z"/>
	<path fill="#F9F9FA" d="M301.5,80.8l-2.9,2.3l0.9,3.2l2.7,1l-0.1,0.6c-0.7-0.2-1.4-0.5-2.3-0.8l-3.7-1.2c-0.3-1.8-0.9-3.5-1.7-5.1
		c1,0.1,1.9-0.2,2.7-0.8l7.5-5.9c1.6,0.9,3.4,1.6,5.3,2.1l-0.7,6.6C306,81.9,303.5,81.2,301.5,80.8z M307,76.4l-4.8,3.8l4.3,1.1
		L307,76.4z"/>
	<path fill="#F9F9FA" d="M315.1,91.7l0.6-3l-1.7-0.6l-7.7,5.1l-0.2,2.5l1.2,0.5l-0.1,0.6l-4.2-1.2c0.2-1.8,0.1-3.6-0.3-5.4
		c0.8,0.3,1.7,0.1,2.7-0.6l6-4c0.5-0.3,0.8-0.9,0.9-1.6l-0.7-0.3l0.1-0.6l4,1.1c0.1,0.9,0.1,1.5,0,1.9c-0.1,0.5-0.5,1.1-1,1.6
		l4.3,1.6l-0.8,3.4L315.1,91.7z"/>
	<path fill="#F9F9FA" d="M315.2,117.9c0-1,0.3-1.9,0.8-2.5c0.4-0.5,1.1-1,2.1-1.5l7.7-3.8l0.6-2l-2.8-1.5l-8,3.9l-0.7,1.4l-3.2-1.3
		l0.8-3.5l1.5,0.5l8.3-4.1c0.5-0.2,0.8-0.9,0.9-2.1l-3.2-1.7l-7.8,3.9l-0.7,1.4l-3.2-1.4l0.9-3.4l1.4,0.4l8.3-4.1
		c0.5-0.3,0.9-0.8,1.1-1.5l-0.6-0.4l0.2-0.5l3.7,1.4c0,1.8-0.8,3.1-2.4,3.8l5.8,3.1c-0.4,1.6-1.2,2.8-2.3,3.8c1.2,0.6,3,1.5,5.4,2.6
		l-1,3.2l1.8,0.8l-0.2,0.5c-0.5-0.1-0.9-0.2-1.3-0.2c-0.6-0.1-1-0.2-1.4-0.2l-8.5,4.2c-0.3,0.4-0.5,0.9-0.5,1.5l0.7,0.4l-0.1,0.6
		L315.2,117.9z"/>
	<path fill="#F9F9FA" d="M317.7,124.8c0.3-1.8,1.1-3,2.6-3.4l0.6-0.2l8.8-3.1l0.7-1.4l3,1.8l-1.2,3.4l-1.3-0.5l-9.3,3.3
		c-0.4,0.3-0.7,0.7-0.7,1.4l0.6,0.5l-0.2,0.5L317.7,124.8z M334.9,117.9l-0.2-0.4l3.7-0.4l0.9,2.6L334.9,117.9z"/>
	<path fill="#F9F9FA" d="M322.2,139.9c0.6-2,1.5-2.7,3.6-3.3l8.3-2.2l0.9-1.9l-2.5-2l-8.6,2.3L323,134l-2.9-2l1.5-3.3l1.3,0.7
		l8.9-2.3c0.6-0.2,1.1-0.6,1.4-1.3l-0.5-0.5l0.3-0.5l3.4,2.2c-0.5,1.7-1.5,2.8-3,3.2c1.9,1.6,3.6,2.8,4.8,3.6l-1.6,3l1.6,1.2
		l-0.3,0.5c-0.8-0.4-1.7-0.7-2.6-1l-9.1,2.4c-0.4,0.3-0.7,0.7-0.8,1.3l0.6,0.6l-0.3,0.4L322.2,139.9z"/>
	<path fill="#F9F9FA" d="M324.8,153.7c0.6-1.7,1.7-2.6,3.5-2.9l-4.6-4.4l0-0.2c1.3-1.9,2.7-3,4.2-3.2c2.2-0.3,4.5,0.6,6.9,2.6
		l4.2-2.4l0,0.5c0.1,1.4,0.7,2.6,1.9,3.5l-0.9,5.4l0.9,0.9l-0.1,0.1c-1-0.4-1.9-0.7-2.9-0.8l-9.3,1.4c-0.6,0.3-0.9,0.7-0.9,1.2
		l0.4,0.6l-0.3,0.4L324.8,153.7z M333,150.1l1.3-4c-1.3-0.5-2.5-0.7-3.6-0.5c-1.6,0.2-3,1.1-4.2,2.8l2.7,2.4L333,150.1z
		 M337.5,149.4l1.1-5.5l-3.8,2.1l-1.2,4L337.5,149.4z"/>
	<path fill="#F9F9FA" d="M340,161.1l-10.4,0.6l-1.5,2l0.8,1l-0.5,0.4l-3-3.1c1.2-1.8,2.1-3.4,2.4-4.8c0.7,0.6,1.6,0.9,2.6,0.8
		l9.2-0.6l-0.1-1.3l0.5,0l6.1,4.4l-4.5,0.3l0.2,3.7l-1.8,0.1L340,161.1z"/>
	<path fill="#F9F9FA" d="M325.7,169.8c0.8-1.7,2-2.5,3.6-2.4l0.6,0l9.3-0.2l1.1-1.1l2.2,2.7l-2.2,2.9l-1-0.9l-9.9,0.2
		c-0.5,0.1-0.9,0.5-1.1,1l0.4,0.7l-0.3,0.4L325.7,169.8z M344.2,168.7l0-0.5l3.7,0.8l0,2.7L344.2,168.7z"/>
	<path fill="#F9F9FA" d="M325.3,180.5c1.5-1.8,2.6-3.9,3.3-6.4c0.5,0.7,1.4,1.1,2.7,1.2l8.5,0.6c0.4,2,1.2,3.8,2.5,5.4
		c-1.6,2.2-2.6,4.1-2.9,5.6l-11.6-0.9C327.2,183.9,326.4,182,325.3,180.5z M337.8,183.4l1.9-4.1l-9.9-0.8c-0.4,0.8-0.8,1.6-1.2,2.5
		c-0.3,0.6-0.5,1.2-0.7,1.6L337.8,183.4z"/>
	<path fill="#F9F9FA" d="M322.7,198.9c1.4-1.5,2.5-1.8,4.6-1.4l8.4,1.6l1.7-1.4l-1.4-2.9l-8.7-1.6l-1.4,0.7l-1.8-3l2.8-2.3l0.9,1.2
		l9,1.7c0.6,0.1,1.2-0.1,1.8-0.6l-0.3-0.6l0.5-0.3l2.1,3.4c-1.2,1.3-2.5,1.9-4.1,1.6c1.1,2.3,2,4.1,2.8,5.3l-2.7,2.1l0.9,1.8
		l-0.5,0.3c-0.6-0.7-1.2-1.3-1.9-2l-9.3-1.7c-0.5,0.1-0.9,0.4-1.3,0.8l0.3,0.8l-0.4,0.3L322.7,198.9z"/>
	<path fill="#F9F9FA" d="M330.8,223.1l-9.8-3.7l-2.2,1.3l0.4,1.2l-0.6,0.2l-1.5-4.1c1.8-1.1,3.2-2.2,4.2-3.4
		c0.4,0.9,1.1,1.5,2.1,1.8l8.6,3.3l0.5-1.2l0.5,0.2l3.8,6.5l-4.3-1.6l-1.3,3.5l-1.7-0.6L330.8,223.1z"/>
	<path fill="#F9F9FA" d="M312.8,228.1c2.1-1.2,3.9-2.7,5.4-4.7c0.2,0.8,0.9,1.5,2.1,2.1l7.7,3.6c-0.4,2-0.2,4,0.4,5.9
		c-2.3,1.5-3.9,2.9-4.8,4.2l-10.5-5C313.3,231.9,313.2,229.9,312.8,228.1z M323.4,235.3l3.2-3.1l-8.9-4.2c-0.6,0.6-1.3,1.2-2,1.9
		c-0.5,0.5-0.9,0.9-1.2,1.2L323.4,235.3z"/>
	<path fill="#F9F9FA" d="M313.3,256.3l-8.6-6l-2.4,0.7l0.1,1.3l-0.6,0l-0.4-4.3c2.1-0.6,3.7-1.4,4.9-2.2c0.2,0.9,0.7,1.7,1.6,2.3
		l7.6,5.3l0.7-1.1l0.4,0.3l2.1,7.2l-3.8-2.6l-2.1,3.1l-1.5-1L313.3,256.3z"/>
	<path fill="#F9F9FA" d="M302.6,266.5l3-0.4l0.1-1.8l-7.2-5.8l-2.4,0.6l-0.1,1.3l-0.6,0.1l-0.1-4.3c1.8-0.3,3.5-1,5.1-1.9
		c0,0.9,0.5,1.6,1.4,2.4l5.6,4.5c0.5,0.4,1.1,0.5,1.8,0.4l0.1-0.7l0.6-0.1l0.1,4.1c-0.8,0.3-1.4,0.5-1.8,0.5c-0.5,0-1.1-0.1-1.8-0.5
		l-0.2,4.6l-3.5,0.2L302.6,266.5z"/>
	<path fill="#F9F9FA" d="M284.6,268c1.7-0.6,3.1-0.2,4.4,1l0.7-6.3l0.1-0.1c2.3-0.1,4,0.3,5.1,1.3c1.6,1.5,2.3,3.9,2.1,7.1l4.4,1.9
		l-0.4,0.3c-1,0.9-1.6,2.1-1.6,3.7l-4.8,2.6l-0.1,1.3l-0.2,0c-0.2-1-0.6-2-1.1-2.8l-6.7-6.5c-0.6-0.3-1.1-0.3-1.5,0l-0.2,0.7
		l-0.5,0.1L284.6,268z M292.4,272.4l4-1.4c-0.4-1.3-1-2.4-1.8-3.2c-1.2-1.1-2.7-1.7-4.7-1.6l-0.3,3.6L292.4,272.4z M295.7,275.6
		l5.1-2.5l-4-1.7l-3.9,1.5L295.7,275.6z"/>
	<path fill="#F9F9FA" d="M273,278.2c2.1-0.3,3.1,0.2,4.5,1.9l5.5,6.5l2.2,0l0.8-3.1l-5.7-6.8l-1.5-0.3l0.5-3.5l3.6,0l-0.1,1.5l5.9,7
		c0.4,0.5,1,0.7,1.7,0.7l0.2-0.7l0.5,0.1l-0.6,4c-1.8,0.3-3.1-0.2-4.2-1.4c-0.6,2.4-1,4.4-1.2,5.8l-3.4-0.1l-0.4,1.9l-0.5-0.1
		c0-0.9-0.1-1.8-0.2-2.8l-6.1-7.2c-0.4-0.2-1-0.3-1.5-0.2l-0.3,0.8l-0.5,0L273,278.2z"/>
	<path fill="#F9F9FA" d="M268.6,300.6l0.3-5.5l-4,0.2l-3.7-5.4c0.5-0.7,1-1.4,1.4-2.2c0.2-0.4,0.6-1.2,1-2.3
		c1.4-0.2,2.6-0.6,3.6-1.3c1-0.7,1.8-1.6,2.6-2.8l0.6,0l-0.2,7.5l4-0.4l3.1,4.6c-1,1.5-1.6,3.2-2,5c-2.2,0.3-3.8,0.8-4.7,1.4
		l-0.7,0.6c-0.6,0.4-0.8,1.3-0.4,1.8c0.1,0.2,0.6,0.4,1.4,0.7l0.3,0.2c0.2,0.3,0.1,0.6-0.4,1c-0.6,0.4-1.1,0.3-1.7-0.5
		C268.7,302.6,268.6,301.7,268.6,300.6z M269.1,291.9l0.5-6.5c-0.5,0.5-1.1,1-1.8,1.5c-1.1,0.7-2.3,1.2-3.8,1.4l2.7,4L269.1,291.9z
		 M271.2,296.2c0.9-0.6,2-1.1,3.5-1.4l-2.3-3.4l-2.4,0.3l-0.4,5.8C270,297.1,270.5,296.6,271.2,296.2z"/>
	<path fill="#F9F9FA" d="M241,297.9c1,0,1.9,0.3,2.5,0.7c0.5,0.4,1,1.1,1.5,2.1l3.9,7.6l2,0.5l1.5-2.8l-4-7.9l-1.4-0.7l1.3-3.2
		l3.6,0.8l-0.5,1.5l4.2,8.2c0.2,0.5,0.9,0.8,2.1,0.9l1.6-3.2l-4-7.8l-1.4-0.6l1.3-3.3l3.5,0.8l-0.4,1.4l4.2,8.2
		c0.3,0.5,0.8,0.9,1.6,1.1l0.3-0.6l0.5,0.2l-1.4,3.7c-1.8,0-3.1-0.8-3.8-2.3l-3,5.8c-1.6-0.4-2.8-1.2-3.8-2.3
		c-0.6,1.2-1.5,3-2.6,5.4l-3.3-0.9l-0.8,1.8l-0.5-0.2c0.1-0.5,0.1-0.9,0.2-1.3c0.1-0.6,0.2-1,0.2-1.4l-4.3-8.4
		c-0.4-0.3-0.9-0.5-1.5-0.5l-0.4,0.7l-0.6-0.1L241,297.9z"/>
	<path fill="#F9F9FA" d="M226.3,303.4c1.8,0.5,2.9,1.4,3.4,2.8l3.7-5.2c1.8,0.4,3,1.5,3.6,3.1l3.2,8.9l0.8,0.4l0.6-0.8l0.5,0.2
		l-2.4,3.7l-3.3-1.1l0.7-1.2l-3.2-9c-0.2-0.6-0.8-1-1.8-1.2l-2.1,3l3,8.5l1.2,0.7l-1.7,2.9l-3.3-1.1l0.7-1.2l-3.4-9.6
		c-0.1-0.4-0.6-0.6-1.4-0.7l-0.5,0.6l-0.5-0.2L226.3,303.4z"/>
	<path fill="#F9F9FA" d="M221.8,320l-2.7-10.1l-2.3-1l-0.8,1l-0.5-0.4l2.5-3.5c2,0.8,3.7,1.3,5.2,1.4c-0.5,0.8-0.6,1.7-0.3,2.7
		l2.4,8.9l1.2-0.3l0.1,0.5l-3.1,6.9l-1.2-4.4l-3.6,1l-0.5-1.8L221.8,320z"/>
	<path fill="#F9F9FA" d="M210.8,315.4l-0.7-3.7l-3.3-0.7l-2.1,1.9l-0.5-0.3c0.5-0.5,1.1-1.1,1.7-1.7l2.7-2.8
		c1.7,0.5,3.5,0.8,5.3,0.8c-0.5,0.8-0.7,1.7-0.5,2.8l1.8,9.4c-1.5,1.1-2.9,2.3-4.3,3.7l-5.5-3.6C207.7,318.9,209.5,317,210.8,315.4z
		 M212.2,322.2l-1.2-6l-2.9,3.3L212.2,322.2z"/>
	<path fill="#F9F9FA" d="M184.6,311c2,1.3,4.2,2.2,6.7,2.6c-0.6,0.6-0.9,1.5-0.9,2.8l0.3,8.5c-2,0.6-3.6,1.6-5.1,3.1
		c-2.4-1.4-4.3-2.1-5.9-2.3l-0.5-11.7C181.5,313.2,183.3,312.2,184.6,311z M183.2,323.7l4.3,1.4l-0.4-9.9c-0.8-0.3-1.7-0.6-2.6-0.9
		c-0.7-0.2-1.2-0.4-1.6-0.5L183.2,323.7z"/>
	<path fill="#F9F9FA" d="M165.9,310.7c1.5,1.1,2.2,2.4,2.1,3.9l5.4-3.4c1.5,1,2.2,2.5,2.1,4.3l-0.5,9.4l0.6,0.6l0.9-0.5l0.3,0.4
		l-3.7,2.5l-2.7-2.3l1.1-0.8l0.5-9.5c0-0.7-0.4-1.3-1.2-1.8l-3.1,1.9l-0.5,9l0.8,1.1l-2.7,2l-2.6-2.3l1.1-0.8l0.5-10.2
		c0-0.4-0.3-0.8-1-1.2l-0.7,0.4l-0.3-0.4L165.9,310.7z"/>
	<path fill="#F9F9FA" d="M151.2,321.3l1.9,2.4l1.6-0.9l1.3-9.2l-1.7-1.8l-1.2,0.6l-0.4-0.5l3.7-2.3c1.2,1.4,2.6,2.5,4.3,3.3
		c-0.7,0.4-1.2,1.2-1.3,2.4l-1,7.1c-0.1,0.6,0.1,1.2,0.6,1.8l0.7-0.3l0.3,0.4l-3.5,2.2c-0.7-0.5-1.2-0.9-1.4-1.3
		c-0.3-0.4-0.5-1-0.5-1.8l-4,2.2l-2-2.8L151.2,321.3z"/>
	<path fill="#F9F9FA" d="M126.5,305.4c2.2,0,4.2-0.4,6-1c1.5,1.9,3.3,3.4,5.5,4.6c-0.8,0.4-1.4,1.1-1.8,2.3l-2.5,8.2
		c-0.9-0.1-2.1,0.1-3.6,0.3l3.6,4.2l-1,3.3l-8.6-9.9c-0.5,0.4-1.1,0.6-1.7,0.7c0.3-0.4,0.6-0.9,0.7-1.4L126.5,305.4z M126.9,316.1
		l2.2,2.7l1.4-0.3l2.9-9.3l-3.5-2.6L126.9,316.1z"/>
	<path fill="#F9F9FA" d="M113.1,310.4l1.3,2.8l1.7-0.5l3.5-8.6l-1.3-2.1l-1.3,0.3l-0.2-0.6l4.1-1.4c0.9,1.6,2,3,3.3,4.3
		c-0.8,0.3-1.4,0.9-1.9,2l-2.7,6.7c-0.2,0.6-0.2,1.2,0.2,1.9l0.7-0.1l0.2,0.5l-3.9,1.3c-0.6-0.7-0.9-1.2-1.1-1.6
		c-0.2-0.5-0.2-1.1,0-1.9l-4.5,1.2l-1.3-3.2L113.1,310.4z"/>
	<path fill="#F9F9FA" d="M107.9,302.9l1.6-3.3l-2.2-2.5l-2.8,0.3l-0.2-0.6c0.7-0.1,1.5-0.2,2.4-0.3l3.8-0.6c1.1,1.5,2.3,2.8,3.7,3.8
		c-0.9,0.3-1.6,1-2.1,1.9l-4.2,8.6c-1.8-0.1-3.7,0.1-5.7,0.4l-2.2-6.2C103.4,303.9,105.9,303.4,107.9,302.9z M104.9,309.2l2.7-5.5
		l-4.3,0.9L104.9,309.2z"/>
	<path fill="#F9F9FA" d="M96.3,287.9c0.9,1.5,0.9,3,0,4.5l6.3-0.8l0.2,0.1c0.7,2.2,0.6,4-0.1,5.3c-1.1,1.9-3.3,3.1-6.5,3.7l-0.8,4.7
		l-0.4-0.3c-1.1-0.8-2.4-1.1-4-0.8l-3.6-4.1l-1.3,0.1l0-0.2c1-0.5,1.8-1,2.5-1.7l4.8-8c0.2-0.6,0-1.1-0.3-1.5l-0.7-0.1l-0.2-0.5
		L96.3,287.9z M91.4,300.4l3.5,4.4l0.8-4.3l-2.3-3.5L91.4,300.4z M93.8,296.5l2.3,3.6c1.2-0.7,2.1-1.5,2.7-2.5c0.8-1.4,1-3,0.5-5
		l-3.5,0.5L93.8,296.5z"/>
	<path fill="#F9F9FA" d="M77.5,274c0.4,1,0.5,1.8,0.4,2.5c-0.1,0.7-0.5,1.4-1.2,2.3l-5.3,6.7l0.4,2.1l3.2,0.2l5.5-7l0-1.5l3.5-0.2
		l0.8,3.5l-1.6,0.2l-5.7,7.2c-0.3,0.4-0.3,1.2,0.1,2.3l3.6,0.1l5.4-6.9l0-1.6l3.5-0.1l0.7,3.5l-1.5,0.3l-5.7,7.2
		c-0.4,0.5-0.5,1.1-0.3,1.9l0.7,0.1l0,0.5l-4,0.3c-0.7-1.6-0.6-3.1,0.5-4.5l-6.5-0.3c-0.3-1.6-0.1-3.1,0.5-4.4
		c-1.4-0.1-3.3-0.1-6-0.1l-0.5-3.3l-1.9,0l-0.1-0.6c0.5-0.1,0.9-0.2,1.3-0.3c0.5-0.2,1-0.3,1.4-0.4l5.8-7.4c0.1-0.5,0.1-1-0.2-1.6
		l-0.8-0.1l-0.1-0.6L77.5,274z"/>
	<path fill="#F9F9FA" d="M54.8,273.4l5.5-0.7l-0.9-3.9l4.7-4.6c0.7,0.4,1.6,0.7,2.4,1c0.5,0.1,1.3,0.3,2.5,0.6
		c0.4,1.3,1.1,2.4,1.9,3.3c0.8,0.9,1.9,1.5,3.2,2.1l0.1,0.6l-7.4,1.1l1.1,3.8l-4,3.8c-1.7-0.7-3.4-1.1-5.3-1.2
		c-0.7-2.1-1.4-3.6-2.2-4.4l-0.7-0.6c-0.5-0.5-1.4-0.6-1.9-0.1c-0.2,0.2-0.3,0.7-0.4,1.5l-0.1,0.4c-0.3,0.3-0.6,0.2-1-0.2
		c-0.5-0.5-0.5-1.1,0.2-1.7C52.8,273.8,53.6,273.5,54.8,273.4z M59.5,275.1c0.8,0.8,1.4,1.8,2,3.2l3-2.8l-0.7-2.3l-5.8,0.7
		C58.4,274.1,59,274.6,59.5,275.1z M63.3,272.3l6.5-0.7c-0.6-0.4-1.2-0.9-1.8-1.6c-0.9-0.9-1.6-2.1-2.1-3.5l-3.4,3.3L63.3,272.3z"/>
	<path fill="#F9F9FA" d="M40.9,260.9l0.3,0.4l-3.5,1.4l-1.6-2.2L40.9,260.9z M55.6,249.6c0.3,1.8-0.3,3.2-1.6,4l-0.5,0.3l-7.6,5.4
		l-0.3,1.5l-3.3-0.9l0.2-3.6l1.3,0.2l8.1-5.7c0.3-0.4,0.4-0.9,0.3-1.5l-0.7-0.3l0.1-0.5L55.6,249.6z"/>
	<path fill="#F9F9FA" d="M47.2,236.3c-0.1,2.1-0.7,3-2.6,4.1l-7.4,4.4l-0.4,2.1l2.9,1.3l7.6-4.5l0.5-1.5l3.3,1.1l-0.6,3.6l-1.5-0.3
		l-7.9,4.7c-0.5,0.3-0.9,0.9-1,1.6l0.6,0.3l-0.2,0.5l-3.8-1.2c0-1.8,0.7-3.1,2.1-3.9c-2.3-1-4.2-1.7-5.6-2.2l0.7-3.3l-1.9-0.7
		l0.2-0.5c0.9,0.1,1.8,0.2,2.8,0.2l8.1-4.8c0.3-0.4,0.4-0.9,0.5-1.5l-0.8-0.4l0.1-0.5L47.2,236.3z"/>
	<path fill="#F9F9FA" d="M30.1,234.9l9.4-4.5l0.6-2.4l-1.2-0.6l0.3-0.6l3.9,1.8c-0.5,2.1-0.6,3.9-0.5,5.3c-0.9-0.3-1.8-0.2-2.8,0.2
		l-8.3,4l0.6,1.2l-0.5,0.2l-7.3-1.8l4.1-2l-1.6-3.4l1.6-0.8L30.1,234.9z"/>
	<path fill="#F9F9FA" d="M38.9,218.5c-0.6,2.3-0.7,4.7-0.3,7.2c-0.7-0.4-1.7-0.4-2.9,0.1l-7.9,3c-1.2-1.7-2.7-2.9-4.5-3.9
		c0.6-2.7,0.6-4.8,0.3-6.3l10.9-4.1C35.8,216.3,37.3,217.6,38.9,218.5z M26.4,221.2l0,4.5l9.2-3.5c0-0.9,0-1.8,0-2.8
		c0-0.7,0-1.3-0.1-1.7L26.4,221.2z"/>
	<path fill="#F9F9FA" d="M19.7,194.4L18,197l1.3,1.2l9.1-1.7l1.1-2.2l-0.9-0.9l0.3-0.5l3.4,2.8c-0.9,1.6-1.5,3.3-1.8,5.1
		c-0.6-0.5-1.6-0.7-2.7-0.5l-7.1,1.3c-0.6,0.1-1.1,0.5-1.5,1.2l0.5,0.5l-0.3,0.5l-3.2-2.6c0.2-0.8,0.5-1.4,0.8-1.7
		c0.3-0.4,0.8-0.8,1.6-1l-3.4-3.1l2.1-2.8L19.7,194.4z"/>
	<path fill="#F9F9FA" d="M23.3,186.1l3.7-0.4l1-3.2l-1.7-2.3l0.4-0.4c0.5,0.6,0.9,1.2,1.5,1.9l2.5,3c-0.7,1.7-1.1,3.4-1.3,5.2
		c-0.8-0.6-1.7-0.9-2.7-0.8l-9.5,0.9c-0.9-1.6-2-3.1-3.3-4.6l4.1-5.2C20.1,182.7,21.8,184.7,23.3,186.1z M16.4,186.8l6.1-0.6l-3-3.2
		L16.4,186.8z"/>
	<path fill="#F9F9FA" d="M30,168.4c-0.8,1.6-2.1,2.4-3.8,2.4l4,4.9l0,0.2c-1.5,1.7-3.1,2.7-4.5,2.7c-2.2,0-4.4-1.1-6.5-3.5l-4.4,1.8
		l0-0.5c0.1-1.4-0.4-2.6-1.5-3.7l1.6-5.2l-0.8-1l0.1-0.1c0.9,0.6,1.8,1,2.8,1.2l9.4-0.2c0.6-0.2,1-0.6,1.1-1l-0.3-0.7l0.3-0.4
		L30,168.4z M16.8,170.9l-1.8,5.3l4.1-1.6l1.7-3.8L16.8,170.9z M21.3,170.8l-1.8,3.8c1.2,0.7,2.4,1,3.5,1c1.6,0,3.1-0.7,4.5-2.2
		l-2.3-2.7L21.3,170.8z"/>
	<path fill="#F9F9FA" d="M30.5,159.2c-1.1,1.1-2.1,2.7-3.1,5c-0.6-0.7-1.5-1.1-2.5-1.2l-14.2-1.2c-0.7-0.1-1.5,0.3-2.4,1
		c0.3-0.9,0.7-1.7,1.3-2.3l0-0.4c-0.9-1.2-1.4-2.5-1.5-3.9c0.8,1.3,1.8,1.9,3.1,2.1l15,1.2L28,157l-0.6-0.9l0.5-0.4L30.5,159.2z"/>
	<path fill="#F9F9FA" d="M13,150l-0.1,0.5L9.4,149l0.4-2.7L13,150z M31.4,151.9c-1.1,1.5-2.4,2.1-3.9,1.8l-0.6-0.1l-9.3-1.3
		l-1.3,0.9l-1.8-3l2.7-2.5l0.9,1l9.8,1.4c0.5,0,0.9-0.3,1.3-0.9l-0.3-0.7l0.4-0.3L31.4,151.9z"/>
	<path fill="#F9F9FA" d="M18.6,140.3l10.2,2.1l1.9-1.6l-0.6-1.2l0.6-0.3l2.1,3.8c-1.6,1.4-2.9,2.7-3.6,4c-0.5-0.8-1.3-1.3-2.3-1.5
		l-9-1.9l-0.3,1.3l-0.5-0.1l-4.7-5.9l4.5,0.9l0.8-3.7l1.8,0.4L18.6,140.3z"/>
	<path fill="#F9F9FA" d="M30.9,126.7c0.9,1.5,1.5,3.3,1.9,5.5c0.2,0.9,0.4,2.2,0.8,3.7c0.5,1.9,1.2,2.9,2,3.2l0.2,0
		c0.6,0.2,1.2,0,1.7-0.5c0.4-0.4,0.7-1,0.9-1.7c0.3-0.9,0.3-1.7,0.1-2.4c-0.4-0.8-0.5-1.4-0.5-1.7c0.1-0.2,0.2-0.3,0.4-0.3
		c0,0,0.1,0,0.3,0c0.5,0.1,0.7,0.8,0.8,1.9c0,0.8-0.1,1.6-0.2,2.1l-0.1,0.5c-0.7,2.2-1.7,3.2-3,3l-0.3-0.1c-0.7-0.2-1.5-0.9-2.4-2.2
		c-0.9-1.3-1.5-2-1.8-2.1l-9.1-2.7c-0.6-0.2-1.2,0-1.9,0.4l0.5,1.4l-0.6,0.3l-1.9-4.2c1.2-1.3,2.7-1.7,4.3-1.2l-2.2-5.8
		c1.9-1,3.9-1.2,6.1-0.5C28.4,123.7,29.8,124.9,30.9,126.7z M22.6,127l1.1,2.9l8.4,2.5c-0.5-1.4-1.2-2.6-2-3.6c-1-1.2-2.1-2-3.3-2.4
		C25.2,126,23.8,126.2,22.6,127z"/>
	<path fill="#F9F9FA" d="M47,105.2c-1.6,0.9-3.1,1-4.4,0.3l0.8,6.3c-1.6,0.9-3.2,1-4.8,0.1l-8.4-4.4l-0.8,0.3l0.1,1L29,109l-0.7-4.3
		l3.2-1.5l0.3,1.4l8.5,4.4c0.6,0.3,1.3,0.2,2.1-0.4l-0.5-3.6l-8-4.1l-1.4,0.3l-0.7-3.3l3.1-1.4l0.3,1.4l9.1,4.7
		c0.3,0.2,0.8,0,1.5-0.4l-0.1-0.8l0.5-0.2L47,105.2z"/>
	<path fill="#F9F9FA" d="M42.6,82.8l1.8,5.2l3.6-1.7l5.5,3.6c-0.2,0.8-0.4,1.7-0.4,2.6c0,0.5-0.1,1.3-0.1,2.6
		c-1.2,0.7-2.2,1.6-2.8,2.6c-0.7,1-1.1,2.2-1.4,3.5l-0.5,0.2l-2.7-7l-3.5,1.9l-4.6-3.1c0.3-1.8,0.3-3.6,0-5.4
		c1.9-1.1,3.2-2.1,3.8-3.1l0.4-0.9c0.4-0.6,0.3-1.5-0.3-1.9c-0.2-0.1-0.7-0.2-1.6-0.1l-0.4,0c-0.3-0.2-0.3-0.6,0-1
		c0.4-0.6,1-0.7,1.7-0.2C41.8,81,42.2,81.7,42.6,82.8z M41.9,87.8c-0.6,0.9-1.5,1.8-2.7,2.6l3.4,2.3l2.1-1.2L42.9,86
		C42.7,86.6,42.3,87.2,41.9,87.8z M45.4,91l2,6.2c0.2-0.6,0.6-1.3,1.1-2.1c0.7-1.1,1.7-2,3-2.8l-3.9-2.7L45.4,91z"/>
	<path fill="#F9F9FA" d="M43.8,76.5l-0.3,0.4l-2.3-2.9l1.7-2.1L43.8,76.5z M58.8,87.3c-1.7,0.8-3.1,0.6-4.3-0.4l-0.5-0.4l-7.4-5.8
		l-1.5,0.2l-0.1-3.5l3.5-0.8l0.2,1.3l7.8,6.1c0.4,0.2,0.9,0.2,1.5-0.1l0.1-0.8l0.5-0.1L58.8,87.3z"/>
	<path fill="#F9F9FA" d="M69.1,75.5c-2,0.5-3.1,0.2-4.7-1.3l-6.3-5.8L56,68.7l-0.4,3.2l6.5,6l1.6,0.1l-0.1,3.5L60,81.9l-0.1-1.5
		l-6.8-6.2c-0.4-0.4-1.1-0.6-1.8-0.5l-0.1,0.7l-0.5,0l0.1-4c1.7-0.5,3.1-0.2,4.3,0.9c0.3-2.5,0.5-4.5,0.5-5.9l3.4-0.3l0.2-2l0.5,0
		c0.1,0.9,0.3,1.8,0.6,2.7l6.9,6.4c0.4,0.2,1,0.2,1.5,0l0.2-0.9l0.5,0L69.1,75.5z"/>
	<path fill="#F9F9FA" d="M71.9,54.9l5.7,6.5c0.5,0.6,1.6,1.1,3,1.5c1.5,0.4,2.4,0.7,2.6,1l0.1,0.1c0.5,0.7,0.3,1.8-0.3,3.4
		c0,0-0.3,0.7-0.9,2c-1.7,0.9-3.1,1.7-4,2.5c-1,0.9-1.9,2-2.8,3.4l-1,0l0.1-5.9l-4.1,0.5l-7.8-8.8c0.5-0.7,1-1.6,1.5-2.7
		c0.1-0.2,0.5-1.2,1.2-2.8l5.9-1.8l1-3.1l2.2,2.6L71.9,54.9z M69.4,57l-4.3,2.1l6.7,7.6l2.8-0.4l0.2-3.2L69.4,57z M78.6,65.7
		c-1.2-0.3-2.3-0.8-3.2-1.7l-0.2,7.7c0.5-0.6,1.2-1.3,2.2-2.2c1.3-1.2,3-2.2,5-3.1L82.2,66C80.5,66,79.3,65.8,78.6,65.7z"/>
</g>
<g>
	<path fill="#F9F9FA" d="M415.9,213.2v-50.7h4.9v43.1h28v7.6H415.9z"/>
	<path fill="#F9F9FA" d="M484.3,170.2h-26.9c-0.3,0-0.5,0.2-0.7,0.5c-0.2,0.3-0.3,0.7-0.3,1.1v32.3c0,0.4,0.1,0.8,0.3,1.1
		c0.2,0.3,0.4,0.5,0.7,0.5h26.9v7.6h-26.9c-1.6,0-3-0.9-4.2-2.7c-1.2-1.8-1.7-3.9-1.7-6.5v-32.3c0-2.5,0.6-4.7,1.7-6.5
		c1.2-1.8,2.6-2.7,4.2-2.7h26.9V170.2z"/>
	<path fill="#F9F9FA" d="M517.8,162.6h4.9v50.6h-4.9v-21.5H494v21.5h-4.9v-50.6h4.9v21.5h23.8V162.6z"/>
	<path fill="#F9F9FA" d="M558.1,162.6v7.6h-25.2v13.9h20.3v7.6h-20.3v13.9h25.2v7.6H528v-50.6H558.1z"/>
	<path fill="#F9F9FA" d="M581.4,186l12.7-23.4h5.9v50.6h-4.9v-40.5l-13.7,25.1l-13.7-25.1v40.5h-4.9v-50.6h5.8L581.4,186z"/>
	<path fill="#F9F9FA" d="M605.2,213.2v-50.6h4.9v50.6H605.2z"/>
	<path fill="#F9F9FA" d="M648,170.2h-26.9c-0.3,0-0.5,0.2-0.7,0.5c-0.2,0.3-0.3,0.7-0.3,1.1v32.3c0,0.4,0.1,0.8,0.3,1.1
		c0.2,0.3,0.4,0.5,0.7,0.5H648v7.6h-26.9c-1.6,0-3-0.9-4.2-2.7c-1.2-1.8-1.7-3.9-1.7-6.5v-32.3c0-2.5,0.6-4.7,1.7-6.5
		c1.2-1.8,2.6-2.7,4.2-2.7H648V170.2z"/>
	<path fill="#F9F9FA" d="M791.5,171.8V186c0,2.5-0.6,4.6-1.7,6.4c-1.2,1.8-2.6,2.7-4.2,2.7h-3.3l9.3,17v1.1h-5.8l-9.9-18.1h-11.2
		c-0.2,0-0.6,0-1-0.1v18.2h-4.9v-50.6h26.9c1.6,0,3,0.9,4.2,2.7C790.9,167.2,791.5,169.3,791.5,171.8z M764.6,187.6h21
		c0.3,0,0.5-0.2,0.7-0.5c0.2-0.3,0.3-0.7,0.3-1.1v-14.2c0-0.4-0.1-0.8-0.3-1.1c-0.2-0.3-0.4-0.5-0.7-0.5h-21c-0.3,0-0.5,0.2-0.7,0.5
		c-0.2,0.3-0.3,0.7-0.3,1.1V186c0,0.4,0.1,0.8,0.3,1.1C764.1,187.4,764.3,187.6,764.6,187.6z"/>
	<path fill="#F9F9FA" d="M829.2,170.2h-26.9c-0.3,0-0.5,0.2-0.7,0.5c-0.2,0.3-0.3,0.7-0.3,1.1v32.3c0,0.4,0.1,0.8,0.3,1.1
		c0.2,0.3,0.4,0.5,0.7,0.5h26.9v7.6h-26.9c-1.6,0-3-0.9-4.2-2.7c-1.2-1.8-1.7-3.9-1.7-6.5v-32.3c0-2.5,0.6-4.7,1.7-6.5
		c1.2-1.8,2.6-2.7,4.2-2.7h26.9V170.2z"/>
	<path fill="#F9F9FA" d="M862.7,162.6h4.9v50.6h-4.9v-21.5h-23.8v21.5H834v-50.6h4.9v21.5h23.8V162.6z"/>
	<path fill="#F9F9FA" d="M903,162.6v7.6h-25.2v13.9h20.3v7.6h-20.3v13.9H903v7.6h-30.1v-50.6H903z"/>
	<path fill="#F9F9FA" d="M906.1,162.6H939v7.6h-14v43h-4.9v-43h-14V162.6z"/>
	<path fill="#F9F9FA" d="M970.4,162.6h5.8l-15.2,31.6v19h-4.9v-19L941,162.6h5.8l11.8,23.1L970.4,162.6z"/>
	<path fill="#F9F9FA" d="M979.6,162.7h26.9c1.6,0,3,0.9,4.2,2.7c1.2,1.8,1.7,3.9,1.7,6.4V186c0,2.5-0.6,4.6-1.7,6.4
		c-1.2,1.8-2.6,2.7-4.2,2.7h-21c-0.2,0-0.6,0-1-0.1v18.2h-4.9V162.7z M1007.5,186v-14.2c0-0.4-0.1-0.8-0.3-1.1
		c-0.2-0.3-0.4-0.5-0.7-0.5h-21c-0.3,0-0.5,0.2-0.7,0.5c-0.2,0.3-0.3,0.7-0.3,1.1V186c0,0.4,0.1,0.8,0.3,1.1
		c0.2,0.3,0.4,0.5,0.7,0.5h21c0.3,0,0.5-0.2,0.7-0.5C1007.4,186.8,1007.5,186.5,1007.5,186z"/>
	<path fill="#F9F9FA" d="M1045.9,162.6v7.6h-25.2v13.9h20.3v7.6h-20.3v13.9h25.2v7.6h-30.1v-50.6H1045.9z"/>
	<path fill="#F9F9FA" d="M1083.3,171.8v3h-4.9v-3c0-0.4-0.1-0.8-0.3-1.1c-0.2-0.3-0.4-0.5-0.7-0.5h-21c-0.3,0-0.5,0.2-0.7,0.5
		c-0.2,0.3-0.3,0.7-0.3,1.1v10.8c0,0.4,0.1,0.8,0.3,1.1c0.2,0.3,0.4,0.5,0.7,0.5h21c1.6,0,3,0.9,4.2,2.7c1.2,1.8,1.7,3.9,1.7,6.5
		v10.8c0,2.5-0.6,4.7-1.7,6.5c-1.2,1.8-2.6,2.7-4.2,2.7h-21c-1.6,0-3-0.9-4.2-2.7c-1.2-1.8-1.7-3.9-1.7-6.5v-3h4.9v3
		c0,0.4,0.1,0.8,0.3,1.1c0.2,0.3,0.4,0.5,0.7,0.5h21c0.3,0,0.5-0.2,0.7-0.5c0.2-0.3,0.3-0.7,0.3-1.1v-10.8c0-0.4-0.1-0.8-0.3-1.1
		c-0.2-0.3-0.4-0.5-0.7-0.5h-21c-1.6,0-3-0.9-4.2-2.7c-1.2-1.8-1.7-3.9-1.7-6.5v-10.8c0-2.5,0.6-4.7,1.7-6.5
		c1.2-1.8,2.6-2.7,4.2-2.7h21c1.6,0,3,0.9,4.2,2.7C1082.8,167.1,1083.3,169.2,1083.3,171.8z"/>
</g>
<polygon fill="#F9F9FA" points="355.4,215.9 350.9,213.7 383.7,148.9 410.6,213.9 406,215.8 383.2,160.9 "/>
<polygon fill="#F9F9FA" points="698.3,214.4 693.8,212.1 726.5,147.3 753.5,212.3 748.8,214.2 726.1,159.3 "/>
</svg>
