<?xml version="1.0" encoding="utf-8"?>
<!-- Generator: Adobe Illustrator 18.1.0, SVG Export Plug-In . SVG Version: 6.00 Build 0)  -->
<!DOCTYPE svg PUBLIC "-//W3C//DTD SVG 1.1//EN" "http://www.w3.org/Graphics/SVG/1.1/DTD/svg11.dtd">
<svg version="1.1" id="Layer_1" xmlns="http://www.w3.org/2000/svg" xmlns:xlink="http://www.w3.org/1999/xlink" x="0px" y="0px"
	 viewBox="0 0 636.8 574.6" enable-background="new 0 0 636.8 574.6" xml:space="preserve">
<polygon fill="none" stroke="#111820" stroke-width="7" stroke-miterlimit="10" points="153.6,359.5 477.3,359.5 315.5,66.3 "/>
<rect x="241.6" y="205.3" fill="none" stroke="#111820" stroke-width="5" stroke-miterlimit="10" width="150.4" height="154.2"/>
<ellipse fill="none" stroke="#111820" stroke-width="5" stroke-miterlimit="10" cx="316.9" cy="282.4" rx="75.2" ry="77.1"/>
<g>
	<path fill="#111820" d="M196,79.9c-1.1,2.6-3,5.3-5.7,7.9l-0.3-0.2c2.1-3,3.4-5.1,3.8-6.1c0.8-2.2,0.5-4.3-0.9-6.3l-8.1-12.1
		c-0.7-0.7-1.7-1-3-0.9l-1.8,4.9l7.1,10.7l2,0.5l-1.5,5.1l-5.1-0.4l0.3-2.3L174,67l-2.2,1.4l-1.4-2.1l2.3-1.5l-1.7-2.5
		c-1.3-1.9-2.8-3-4.5-3.3l0-0.1c1.3-0.3,2.6-0.5,3.7-0.4l0.6-0.5c0.3-2.3,1.3-4,2.8-5c-0.6,1.9-0.3,3.6,0.7,5.2l5.1,7.6l3.2-8.6
		c2.8,0,4.9,1,6.3,3.1l7,10.5C197.6,73.5,197.7,76.4,196,79.9z"/>
	<path fill="#111820" d="M213.2,67.7c-2.6,0-4.4-1.1-5.6-3.3l-3.7,8.4l-0.2,0.1c-3.3-0.8-5.5-2.2-6.5-4.1c-1.5-2.8-1.5-6.4,0.2-10.8
		l-5.3-4.5l0.6-0.3c1.8-0.8,3.1-2.3,3.9-4.4l7.8-1.4l0.8-1.7l0.2,0.1c-0.1,1.5,0,3,0.3,4.4l6.4,12c0.7,0.7,1.4,0.9,2.1,0.7l0.6-0.9
		l0.7,0.1L213.2,67.7z M201.1,52.4l-8.1,1.2l4.8,4.2l6-0.3L201.1,52.4z M204.3,58.2l-6.1,0.2c-0.1,2,0.3,3.8,1.1,5.2
		c1.1,2.1,3,3.5,5.8,4.3l1.9-4.8L204.3,58.2z"/>
	<path fill="#111820" d="M223.1,43.7l-4.1-1.5l-1.3,2.3l5.3,12.3l3.5,0.9l1-1.6l0.8,0.3l-2.8,5.6c-2.5-0.8-5.1-1.1-7.8-0.9
		c0.6-1.1,0.5-2.4-0.2-4l-4.1-9.6c-0.4-0.8-1.1-1.4-2.1-1.7l-0.6,0.9l-0.8-0.3l2.6-5.4c1.2,0.1,2.1,0.3,2.7,0.5
		c0.7,0.3,1.4,0.9,2,1.9l3.3-5.8l4.6,2L223.1,43.7z"/>
	<path fill="#111820" d="M249.6,48.9c-2.6,1.9-4.6,4-6.2,6.3c-3.4-1-6.8-1.3-10.4-0.8c0.7-1.2,0.7-2.5,0.1-4.3l-4-11.7
		c1.1-0.7,2.4-1.8,3.9-3.4l-7.7-1.9l-1.6-4.7l18.5,4.4c0.2-0.9,0.7-1.7,1.5-2.3c0,0.8,0.1,1.5,0.3,2.2L249.6,48.9z M240.2,36.6
		l-4.8-1.3l-1.3,1.5l4.5,13.4l6.3,0.1L240.2,36.6z"/>
	<path fill="#111820" d="M289.4,44.9c-2.9-0.9-5-1.3-6.4-1.1c-1.6,0.2-3.1,1.1-4.6,2.6c-2.7-1.4-5.9-2.3-9.8-2.8
		c0.9-1,1.2-2.4,0.9-4.2l-1.7-12c-1.8-1.6-2.8-3.1-3-4.5c-0.3-2.2,1.1-4.5,4.4-6.7l0.3,0.4c-1.2,1.4-1.8,2.7-1.6,3.7
		c0,0.4,0.8,1.4,2.3,2.9c1.5,1.5,2.4,3,2.6,4.5l6.4-6.2c2.3,1.3,3.7,2.9,4.2,4.9l6.4-6.4c2.6,1.7,4.1,3.4,4.3,5.1l2.1,14.8
		C293.7,41.1,291.4,42.7,289.4,44.9z M278.8,28.4c-0.1-0.4-0.2-0.8-0.5-1.1c-0.1-0.1-0.7-0.6-1.8-1.5l-3.5,3.6l1.6,11.6
		c1.6,0.5,3.6,0.9,6.1,1.4L278.8,28.4z M289.9,26.9c-0.1-0.6-0.5-1.2-1.3-1.8c-0.2-0.2-0.6-0.5-1.1-0.9l-3.8,3.6l1.7,12
		c1.2,0.3,2.5,0.5,4,0.7c0.5,0,1.3,0.1,2.4,0.3L289.9,26.9z"/>
	<path fill="#111820" d="M307.7,43.7c-2.9-1.9-6.1-3.2-9.7-3.8c0.9-0.8,1.4-2.1,1.3-4L299,23.6c2.8-0.9,5.3-2.3,7.4-4.4
		c3.4,2,6.2,3.1,8.5,3.4l0.5,16.9C312.3,40.5,309.7,41.9,307.7,43.7z M310,25.3l-6.2-2.1l0.4,14.3c1.2,0.4,2.5,0.9,3.8,1.3
		c1,0.3,1.8,0.6,2.4,0.7L310,25.3z"/>
	<path fill="#111820" d="M332,26.3l-3-3.2l-2.1,1.4L326.1,38l2.7,2.3l1.6-1l0.6,0.7l-5,3.8c-1.9-1.8-4.1-3.2-6.6-4.3
		c1-0.7,1.5-1.9,1.6-3.7l0.5-10.4c0-0.9-0.3-1.7-1.1-2.4l-0.9,0.5l-0.6-0.6l4.7-3.7c1.1,0.6,1.8,1.2,2.2,1.7
		c0.5,0.6,0.8,1.4,0.9,2.5l5.6-3.7l3.3,3.9L332,26.3z"/>
	<path fill="#111820" d="M351.3,46.3c-1.2-1.1-1.8-2.9-1.8-5.4l-5.8,4.5c-2.8-2.1-5.1-3.5-7.1-4.5c1-0.7,1.6-1.9,1.8-3.5l1.9-13.9
		l-2.7-0.4l0.4-2.6l2.7,0.4l0.6-4.6c0.2-1.1-0.3-2.4-1.3-3.7c1.2,0.5,2.3,1.2,3.2,2.1l0.7,0.1c1.8-1.5,3.6-2.1,5.4-1.8
		c-1.8,0.7-2.8,2.2-3.1,4.3l-1.3,9.6l7.6-4.9l4.1,5.6c-1.1,0.6-2.9,1.8-5.4,3.7c1.2,1.2,2.1,2.5,2.4,4.1c0.2,0.6,0.3,1.9,0.5,3.9
		c0.1,1.6,0.4,2.8,0.9,3.7l1.1-0.4l0.5,0.8L351.3,46.3z M347,33.8l-3.4,2l-0.6,4.3l2.9,2l3.5-2.7C349.4,37.4,348.6,35.5,347,33.8z
		 M349.3,25.4l-4.7,3.1l-0.8,5.9l8.3-5.2L349.3,25.4z"/>
	<path fill="#111820" d="M387.2,55.3c-1.8-1.8-2.3-3.9-1.5-6.4l-8.6,3.2l-0.3-0.1c-1.7-2.9-2.2-5.4-1.6-7.5c1-3.1,3.6-5.5,7.9-7.3
		l-0.5-6.9l0.6,0.3c1.8,0.7,3.8,0.7,5.8-0.3l6.4,4.6l1.8-0.6l0,0.2c-1.2,1-2.2,2-2.9,3.3l-4.1,12.9c0,0.9,0.3,1.6,0.9,2l1.1-0.2
		l0.4,0.6L387.2,55.3z M387.8,42.4l-4.4-4.2c-1.5,1.4-2.5,2.8-3,4.4c-0.7,2.2-0.4,4.6,0.9,7.2l4.8-2L387.8,42.4z M389.8,36l-6.5-5
		l0.3,6.3l4.4,4.1L389.8,36z"/>
	<path fill="#111820" d="M407.8,63.7c-1.7-2.5-1.7-4.1-0.5-7l4.9-11.4l-1.4-2.8l-4.5,1l-5.1,11.8l0.6,2.2l-4.8,1.5l-2.4-4.6l2-0.9
		l5.3-12.2c0.3-0.8,0.3-1.7-0.2-2.7l-1,0.2l-0.3-0.7l5.5-1.9c1.5,2.1,1.8,4.2,0.9,6.3c3.6-0.8,6.4-1.5,8.3-2.2l2,4.5l2.8-0.7
		l0.3,0.7c-1.1,0.6-2.3,1.3-3.4,2.1l-5.4,12.5c0,0.7,0.3,1.4,0.7,2.1l1.3-0.1l0.3,0.7L407.8,63.7z"/>
	<path fill="#111820" d="M431.1,71.4c-3.2-0.6-6.1-0.7-8.8-0.3c-1.5-3.2-3.7-5.9-6.4-8.2c1.3-0.3,2.4-1.2,3.2-2.8l6-10.8
		c1.3,0.3,3,0.5,5.2,0.6l-3.8-7l2.4-4.3l9.2,16.6c0.8-0.4,1.7-0.6,2.7-0.5c-0.6,0.5-1.1,1.1-1.5,1.7L431.1,71.4z M433.8,56.2
		l-2.3-4.4l-2,0.1l-6.9,12.4l4.2,4.7L433.8,56.2z"/>
	<path fill="#111820" d="M461.2,93.2c-3-1.2-5.9-1.8-8.6-1.8c-1-3.4-2.6-6.4-4.9-9.2c1.3-0.1,2.5-0.8,3.7-2.2l7.7-9.7
		c1.2,0.6,2.9,1,5,1.5l-2.6-7.5l3.1-3.8l6.3,17.9c0.9-0.3,1.8-0.3,2.7,0c-0.7,0.4-1.2,0.9-1.7,1.5L461.2,93.2z M466.5,78.7l-1.6-4.8
		l-2-0.3L454,84.7l3.3,5.3L466.5,78.7z"/>
	<path fill="#111820" d="M472.5,94l-3.7,3.9l1.9,4.5l4,0.8l0,0.9c-1-0.2-2.2-0.4-3.4-0.6l-5.5-0.9c-0.8-2.5-2-4.8-3.5-6.9
		c1.4-0.1,2.6-0.6,3.7-1.7l9.6-10c2.5,0.9,5.2,1.5,8,2l0.3,9.6C479.2,94.7,475.4,94.2,472.5,94z M479.4,86.7l-6.2,6.5l6.3,0.7
		L479.4,86.7z"/>
	<path fill="#111820" d="M492.3,99.8l-11.2,10.1l0.2,3.6l1.8,0.3l-0.1,0.9l-6.2-0.8c-0.2-3.1-0.7-5.7-1.6-7.6c1.4,0,2.6-0.4,3.7-1.5
		l9.9-9l-1.2-1.4l0.6-0.4l10.9-0.6l-4.8,4.5l3.6,4l-2,1.8L492.3,99.8z"/>
	<path fill="#111820" d="M493.8,117.1l-4.2,3.3l1.2,4.7l3.9,1.4l-0.1,0.8c-1-0.4-2.1-0.7-3.3-1.1l-5.3-1.7c-0.5-2.6-1.3-5.1-2.5-7.4
		c1.4,0.2,2.7-0.2,3.9-1.2l10.9-8.5c2.4,1.2,4.9,2.3,7.6,3.1l-1,9.5C500.3,118.7,496.7,117.7,493.8,117.1z M501.7,110.8l-7,5.5
		l6.2,1.6L501.7,110.8z"/>
	<path fill="#111820" d="M513.5,132.9l0.8-4.3l-2.4-0.9l-11.2,7.4l-0.2,3.6l1.8,0.7l-0.2,0.9l-6-1.8c0.3-2.6,0.1-5.2-0.5-7.8
		c1.2,0.4,2.5,0.1,3.9-0.9l8.7-5.7c0.7-0.5,1.2-1.3,1.3-2.4l-1-0.4l0.2-0.8l5.7,1.6c0.1,1.2,0.1,2.1,0,2.8c-0.2,0.8-0.7,1.5-1.5,2.3
		l6.3,2.3l-1.2,4.9L513.5,132.9z"/>
	<path fill="#111820" d="M513.6,170.9c0.1-1.5,0.4-2.7,1.1-3.5c0.6-0.8,1.6-1.5,3-2.2l11.1-5.5l0.8-2.9l-4.1-2.2l-11.5,5.7l-1,2
		l-4.6-1.9l1.2-5.1l2.1,0.7l12-5.9c0.7-0.3,1.1-1.3,1.3-3l-4.6-2.4l-11.4,5.6l-1,2.1l-4.7-2l1.2-5l2.1,0.6l12-5.9
		c0.8-0.4,1.3-1.1,1.6-2.2l-0.9-0.5l0.3-0.7l5.4,2.1c-0.1,2.6-1.2,4.4-3.4,5.5l8.3,4.5c-0.6,2.3-1.8,4.1-3.4,5.4
		c1.7,0.9,4.3,2.2,7.8,3.8l-1.4,4.7l2.5,1.2l-0.3,0.8c-0.7-0.1-1.3-0.2-1.9-0.4c-0.8-0.1-1.5-0.3-2-0.3l-12.2,6
		c-0.5,0.6-0.7,1.3-0.8,2.2l1,0.6l-0.2,0.8L513.6,170.9z"/>
	<path fill="#111820" d="M517.2,180.9c0.4-2.7,1.7-4.3,3.8-4.9l0.9-0.3l12.7-4.5l1-2l4.3,2.6l-1.8,5l-1.8-0.8l-13.5,4.8
		c-0.6,0.4-1,1-1.1,2l0.9,0.7l-0.3,0.7L517.2,180.9z M542.1,170.9l-0.2-0.6l5.4-0.6l1.3,3.7L542.1,170.9z"/>
	<path fill="#111820" d="M523.7,202.7c0.9-2.9,2.2-3.9,5.2-4.7l12-3.1l1.4-2.8l-3.6-3l-12.4,3.3l-1.3,1.8l-4.2-2.8l2.2-4.7l1.9,1
		l12.9-3.4c0.9-0.2,1.5-0.8,2-1.8l-0.8-0.7l0.4-0.7l4.9,3.2c-0.7,2.5-2.2,4-4.4,4.6c2.8,2.3,5.1,4.1,6.9,5.2l-2.3,4.4l2.3,1.8
		l-0.4,0.7c-1.2-0.5-2.4-1-3.8-1.4l-13.2,3.5c-0.5,0.4-1,1.1-1.2,1.9l0.9,0.9l-0.4,0.6L523.7,202.7z"/>
	<path fill="#111820" d="M527.4,222.6c0.8-2.4,2.5-3.8,5-4.2l-6.6-6.3l0-0.3c1.9-2.8,3.9-4.4,6-4.7c3.2-0.5,6.5,0.8,10.1,3.8l6-3.5
		l0,0.7c0.1,2,1.1,3.7,2.8,5.1l-1.3,7.8l1.3,1.3l-0.2,0.1c-1.4-0.6-2.8-1-4.2-1.2l-13.4,2c-0.8,0.4-1.3,1-1.4,1.7l0.6,0.9l-0.4,0.6
		L527.4,222.6z M539.4,217.5l1.9-5.8c-1.9-0.7-3.7-1-5.3-0.8c-2.3,0.3-4.3,1.7-6,4l3.9,3.4L539.4,217.5z M545.9,216.5l1.6-8
		l-5.5,3.1l-1.8,5.8L545.9,216.5z"/>
	<path fill="#111820" d="M549.5,233.5l-15.1,0.9l-2.1,2.9l1.2,1.4l-0.7,0.6l-4.3-4.5c1.8-2.6,3-4.9,3.5-6.9c1,0.9,2.3,1.3,3.8,1.2
		l13.4-0.8l-0.1-1.9l0.7,0l8.9,6.4l-6.6,0.5l0.3,5.4l-2.6,0.2L549.5,233.5z"/>
	<path fill="#111820" d="M528.8,246c1.2-2.4,2.9-3.5,5.2-3.4l0.9,0l13.5-0.2l1.6-1.6l3.2,3.9l-3.2,4.1l-1.5-1.3l-14.4,0.2
		c-0.7,0.2-1.2,0.7-1.6,1.5l0.6,0.9l-0.5,0.5L528.8,246z M555.6,244.5l0-0.7l5.3,1.2l0.1,3.9L555.6,244.5z"/>
	<path fill="#111820" d="M528.2,261.6c2.2-2.6,3.8-5.7,4.8-9.2c0.7,1,2,1.6,3.9,1.7l12.3,1c0.6,2.9,1.8,5.5,3.6,7.8
		c-2.4,3.2-3.8,5.9-4.3,8.1l-16.9-1.3C530.9,266.5,529.8,263.8,528.2,261.6z M546.3,265.8l2.7-5.9l-14.3-1.1
		c-0.6,1.1-1.2,2.4-1.7,3.6c-0.4,0.9-0.8,1.7-1,2.3L546.3,265.8z"/>
	<path fill="#111820" d="M524.4,288.2c2-2.2,3.7-2.6,6.7-2l12.2,2.3l2.4-2l-2-4.2l-12.6-2.4l-2,1.1l-2.6-4.4l4-3.3l1.3,1.8l13.1,2.5
		c0.9,0.2,1.8-0.1,2.6-0.8l-0.4-0.9l0.7-0.4l3,5c-1.7,1.9-3.7,2.7-6,2.3c1.5,3.3,2.9,5.9,4,7.7l-3.9,3l1.3,2.6l-0.7,0.4
		c-0.8-1-1.7-1.9-2.8-2.9l-13.4-2.5c-0.7,0.1-1.3,0.6-1.9,1.2l0.4,1.2l-0.6,0.4L524.4,288.2z"/>
	<path fill="#111820" d="M536,323.3l-14.1-5.3l-3.1,1.8l0.5,1.8l-0.9,0.3l-2.1-5.9c2.7-1.6,4.7-3.2,6.1-4.9c0.6,1.2,1.6,2.1,3,2.7
		l12.5,4.7l0.7-1.7l0.7,0.3l5.5,9.4l-6.2-2.3l-1.9,5.1l-2.5-0.9L536,323.3z"/>
	<path fill="#111820" d="M510,330.5c3-1.7,5.6-4,7.8-6.8c0.3,1.2,1.3,2.2,3,3l11.1,5.3c-0.5,2.9-0.3,5.8,0.5,8.6
		c-3.4,2.1-5.6,4.1-6.9,6l-15.3-7.3C510.7,336,510.6,333.1,510,330.5z M525.3,341l4.7-4.5l-12.9-6.2c-0.9,0.9-1.9,1.8-2.9,2.8
		c-0.7,0.7-1.3,1.3-1.7,1.8L525.3,341z"/>
	<path fill="#111820" d="M510.7,371.3l-12.4-8.6l-3.5,1l0.1,1.9l-0.9,0.1l-0.6-6.2c3-0.9,5.3-2,7.1-3.2c0.3,1.3,1,2.5,2.2,3.3
		l11,7.7l1.1-1.5l0.6,0.5l3,10.5l-5.4-3.7l-3.1,4.4l-2.2-1.5L510.7,371.3z"/>
	<path fill="#111820" d="M495.2,386l4.4-0.5l0.1-2.6l-10.4-8.5l-3.5,0.8l-0.1,1.9l-0.9,0.1l-0.1-6.3c2.6-0.5,5-1.4,7.3-2.8
		c0,1.2,0.7,2.4,2,3.5l8.1,6.6c0.7,0.6,1.6,0.8,2.7,0.5l0.1-1.1l0.8-0.1l0.2,6c-1.1,0.5-2,0.8-2.6,0.8c-0.8,0.1-1.7-0.2-2.6-0.7
		l-0.3,6.7l-5,0.4L495.2,386z"/>
	<path fill="#111820" d="M469.1,388.3c2.4-0.8,4.6-0.3,6.4,1.5l1-9.1l0.2-0.2c3.4-0.2,5.9,0.4,7.4,1.9c2.3,2.2,3.3,5.7,3.1,10.3
		l6.4,2.7l-0.5,0.5c-1.5,1.3-2.3,3.1-2.4,5.3l-7,3.7l-0.2,1.9l-0.2-0.1c-0.3-1.5-0.9-2.8-1.6-4.1l-9.7-9.5c-0.8-0.4-1.6-0.4-2.2-0.1
		l-0.3,1l-0.7,0.1L469.1,388.3z M480.4,394.6l5.8-2.1c-0.6-2-1.4-3.5-2.6-4.6c-1.7-1.6-3.9-2.4-6.8-2.4l-0.4,5.2L480.4,394.6z
		 M485.2,399.2l7.4-3.6l-5.8-2.5l-5.7,2.1L485.2,399.2z"/>
	<path fill="#111820" d="M452.3,403c3-0.4,4.5,0.3,6.5,2.7l8,9.5l3.1,0l1.2-4.5l-8.3-9.9l-2.2-0.4l0.8-5l5.2,0l-0.1,2.2l8.6,10.2
		c0.6,0.7,1.4,1,2.5,1l0.3-1l0.8,0.1l-0.8,5.8c-2.5,0.4-4.6-0.2-6.1-2c-0.9,3.5-1.5,6.4-1.8,8.5l-4.9-0.2l-0.6,2.8l-0.8-0.1
		c0-1.3-0.1-2.6-0.3-4l-8.8-10.4c-0.6-0.3-1.4-0.4-2.2-0.3l-0.5,1.2l-0.7-0.1L452.3,403z"/>
	<path fill="#111820" d="M445.9,435.4l0.4-8l-5.8,0.3l-5.4-7.9c0.8-1,1.4-2,2-3.2c0.3-0.6,0.8-1.7,1.5-3.4c2-0.3,3.7-0.9,5.2-1.9
		c1.4-1,2.7-2.3,3.8-4l0.8,0l-0.3,10.8l5.8-0.6l4.5,6.6c-1.4,2.2-2.4,4.6-3,7.2c-3.2,0.5-5.4,1.1-6.8,2.1l-1.1,0.9
		c-0.8,0.6-1.2,1.8-0.6,2.6c0.2,0.3,0.9,0.6,2.1,1l0.5,0.2c0.3,0.5,0.1,0.9-0.6,1.4c-0.9,0.6-1.7,0.4-2.4-0.7
		C446,438.3,445.8,437.1,445.9,435.4z M446.6,422.9l0.7-9.5c-0.7,0.7-1.6,1.4-2.7,2.2c-1.5,1-3.4,1.7-5.5,2.1l3.8,5.7L446.6,422.9z
		 M449.6,429.1c1.3-0.9,3-1.6,5-2l-3.3-5l-3.5,0.5l-0.5,8.4C447.9,430.3,448.7,429.7,449.6,429.1z"/>
	<path fill="#111820" d="M405.9,431.5c1.5,0,2.7,0.4,3.6,1c0.8,0.6,1.5,1.6,2.2,3l5.6,11l2.9,0.8l2.1-4.1l-5.8-11.5l-2-0.9l1.8-4.7
		l5.1,1.1l-0.7,2.2l6,11.9c0.4,0.7,1.3,1.1,3,1.3l2.3-4.6l-5.7-11.3l-2.1-0.9l1.9-4.7l5,1.2l-0.5,2.1l6,11.9
		c0.4,0.8,1.2,1.3,2.3,1.5l0.5-0.9l0.7,0.3l-2,5.4c-2.6,0-4.4-1.1-5.6-3.3l-4.4,8.4c-2.3-0.6-4.1-1.7-5.5-3.3
		c-0.9,1.7-2.1,4.3-3.7,7.9l-4.7-1.3l-1.1,2.6l-0.8-0.2c0.1-0.7,0.2-1.3,0.3-1.9c0.1-0.8,0.2-1.5,0.3-2.1l-6.2-12.2
		c-0.6-0.5-1.3-0.7-2.2-0.8l-0.6,1l-0.8-0.2L405.9,431.5z"/>
	<path fill="#111820" d="M384.5,439.5c2.6,0.7,4.3,2,5,4.1l5.4-7.5c2.6,0.6,4.3,2.1,5.2,4.6l4.6,12.9l1.2,0.5l0.9-1.1l0.7,0.4
		l-3.5,5.3l-4.8-1.5l1.1-1.7l-4.6-13c-0.3-0.9-1.2-1.5-2.6-1.7l-3,4.3l4.4,12.3l1.7,1l-2.5,4.1l-4.7-1.6l1-1.7l-4.9-13.9
		c-0.2-0.5-0.9-0.8-2.1-1l-0.7,0.9l-0.7-0.3L384.5,439.5z"/>
	<path fill="#111820" d="M378,463.4l-3.9-14.6l-3.3-1.5l-1.1,1.5l-0.8-0.6l3.6-5.1c2.8,1.2,5.3,2,7.5,2.1c-0.7,1.2-0.8,2.5-0.4,4
		l3.4,12.9l1.8-0.5l0.1,0.7l-4.5,9.9l-1.7-6.4l-5.2,1.4l-0.7-2.6L378,463.4z"/>
	<path fill="#111820" d="M362.1,456.8l-1-5.3l-4.7-1l-3,2.8l-0.7-0.5c0.8-0.7,1.6-1.5,2.5-2.4l3.9-4c2.5,0.8,5.1,1.2,7.7,1.1
		c-0.8,1.2-1,2.5-0.7,4l2.6,13.6c-2.2,1.5-4.3,3.4-6.2,5.4l-8-5.3C357.7,461.8,360.2,459.1,362.1,456.8z M364,466.7l-1.7-8.8
		l-4.2,4.8L364,466.7z"/>
	<path fill="#111820" d="M324.2,450.3c2.9,1.9,6.1,3.1,9.7,3.7c-0.9,0.8-1.4,2.1-1.3,4l0.5,12.3c-2.8,0.9-5.3,2.4-7.4,4.4
		c-3.4-2-6.3-3.1-8.6-3.3l-0.6-16.9C319.6,453.5,322.2,452.1,324.2,450.3z M322,468.7l6.2,2l-0.5-14.3c-1.2-0.4-2.5-0.9-3.8-1.3
		c-1-0.3-1.8-0.6-2.4-0.7L322,468.7z"/>
	<path fill="#111820" d="M297,449.8c2.1,1.6,3.2,3.5,3,5.7l7.9-4.9c2.1,1.5,3.2,3.6,3,6.2l-0.7,13.7l0.9,0.9l1.3-0.7l0.5,0.6
		l-5.3,3.6l-3.9-3.3l1.7-1.2l0.7-13.8c0.1-1-0.5-1.8-1.8-2.6l-4.5,2.8l-0.7,13l1.2,1.6l-3.9,2.9l-3.8-3.3l1.6-1.2l0.8-14.8
		c0-0.6-0.5-1.1-1.5-1.7l-1,0.6l-0.5-0.5L297,449.8z"/>
	<path fill="#111820" d="M275.8,465.2l2.7,3.5l2.3-1.2l1.9-13.3l-2.5-2.6l-1.7,0.9l-0.5-0.7l5.3-3.3c1.8,2,3.8,3.6,6.2,4.9
		c-1.1,0.6-1.7,1.8-1.9,3.5l-1.5,10.3c-0.1,0.9,0.2,1.8,0.9,2.5l1-0.4l0.5,0.6l-5,3.2c-1-0.7-1.7-1.3-2-1.9
		c-0.4-0.6-0.7-1.5-0.7-2.6l-5.9,3.2l-2.9-4.1L275.8,465.2z"/>
	<path fill="#111820" d="M240,442.1c3.2,0,6.1-0.5,8.7-1.5c2.1,2.8,4.8,5,7.9,6.7c-1.2,0.5-2.1,1.6-2.6,3.4l-3.6,11.8
		c-1.3-0.1-3,0.1-5.2,0.5l5.2,6l-1.4,4.7l-12.4-14.4c-0.7,0.6-1.6,0.9-2.5,1c0.5-0.6,0.8-1.3,1.1-2L240,442.1z M240.5,457.5l3.2,3.9
		l2-0.5l4.2-13.5l-5.1-3.7L240.5,457.5z"/>
	<path fill="#111820" d="M220.5,449.3l1.8,4l2.5-0.7l5-12.5l-1.8-3.1l-1.8,0.4l-0.4-0.8l6-2c1.2,2.3,2.9,4.4,4.8,6.2
		c-1.2,0.4-2.1,1.3-2.7,2.9l-3.9,9.7c-0.3,0.8-0.2,1.7,0.3,2.7l1-0.2l0.3,0.7l-5.6,1.9c-0.8-0.9-1.3-1.7-1.5-2.3
		c-0.3-0.7-0.3-1.6-0.1-2.7l-6.5,1.7l-1.8-4.7L220.5,449.3z"/>
	<path fill="#111820" d="M213.1,438.4l2.4-4.8l-3.1-3.7l-4.1,0.4l-0.2-0.8c1.1-0.1,2.2-0.2,3.5-0.4l5.5-0.8c1.5,2.1,3.3,4,5.4,5.6
		c-1.4,0.5-2.3,1.4-3,2.7l-6.1,12.4c-2.7-0.1-5.4,0.1-8.2,0.5l-3.2-9C206.5,439.8,210.2,439.1,213.1,438.4z M208.7,447.5l4-8
		l-6.2,1.3L208.7,447.5z"/>
	<path fill="#111820" d="M196.3,416.7c1.3,2.2,1.3,4.4,0,6.5l9.1-1.1l0.2,0.1c1,3.2,0.9,5.8-0.2,7.6c-1.7,2.8-4.8,4.5-9.4,5.3
		l-1.2,6.9l-0.6-0.4c-1.6-1.1-3.5-1.5-5.7-1.1l-5.2-6l-1.9,0.2l0-0.2c1.4-0.7,2.6-1.5,3.6-2.5l7-11.6c0.2-0.9,0-1.6-0.4-2.1
		l-1.1-0.1l-0.3-0.7L196.3,416.7z M189.2,434.9l5.1,6.4l1.2-6.2l-3.3-5L189.2,434.9z M192.6,429.1l3.3,5.2c1.8-1,3.1-2.2,3.9-3.6
		c1.2-2,1.5-4.4,0.8-7.2l-5.1,0.8L192.6,429.1z"/>
	<path fill="#111820" d="M169.1,396.5c0.6,1.4,0.8,2.6,0.5,3.7c-0.2,1-0.8,2-1.8,3.3l-7.7,9.7l0.5,3l4.6,0.2l8-10.1l0-2.2l5-0.3
		l1.1,5.1l-2.2,0.3l-8.3,10.4c-0.5,0.6-0.5,1.7,0.1,3.3l5.2,0.2l7.9-9.9l0-2.3l5.1-0.2l1,5l-2.1,0.4l-8.3,10.4
		c-0.5,0.7-0.7,1.6-0.4,2.7l1,0.1l0,0.7l-5.7,0.4c-1-2.4-0.8-4.5,0.7-6.4l-9.4-0.5c-0.4-2.3-0.1-4.4,0.7-6.4c-2-0.1-4.8-0.1-8.7-0.1
		l-0.8-4.8l-2.8,0l-0.1-0.8c0.7-0.2,1.3-0.4,1.9-0.5c0.8-0.2,1.5-0.4,2-0.6l8.5-10.7c0.2-0.7,0.1-1.5-0.2-2.3l-1.2-0.1l-0.2-0.8
		L169.1,396.5z"/>
	<path fill="#111820" d="M136.2,395.6l7.9-1l-1.3-5.7l6.8-6.6c1.1,0.6,2.3,1.1,3.5,1.4c0.7,0.2,1.9,0.5,3.6,0.9
		c0.6,1.9,1.5,3.5,2.8,4.8c1.2,1.3,2.7,2.2,4.6,3l0.1,0.8l-10.7,1.6l1.6,5.6l-5.7,5.6c-2.4-1-5-1.5-7.6-1.7c-1-3.1-2.1-5.2-3.2-6.4
		l-1.1-0.9c-0.7-0.7-2-0.9-2.7-0.2c-0.3,0.3-0.4,1-0.6,2.2l-0.2,0.5c-0.4,0.4-0.9,0.3-1.5-0.3c-0.7-0.8-0.7-1.6,0.3-2.5
		C133.4,396.1,134.5,395.8,136.2,395.6z M143,398.1c1.1,1.1,2.1,2.6,2.9,4.6l4.3-4.1l-1.1-3.4l-8.3,0.9
		C141.5,396.6,142.2,397.3,143,398.1z M148.6,394.1l9.5-1c-0.8-0.5-1.7-1.3-2.6-2.3c-1.3-1.3-2.3-3-3-5.1l-5,4.8L148.6,394.1z"/>
	<path fill="#111820" d="M116.2,377.4l0.4,0.6l-5.1,2l-2.3-3.2L116.2,377.4z M137.5,361.1c0.4,2.7-0.4,4.6-2.3,5.8l-0.8,0.5
		l-11.1,7.8l-0.4,2.2l-4.8-1.4l0.4-5.2l2,0.2l11.7-8.3c0.5-0.5,0.6-1.2,0.5-2.2l-1.1-0.4l0.1-0.7L137.5,361.1z"/>
	<path fill="#111820" d="M125.3,341.8c-0.1,3-1,4.4-3.7,5.9l-10.7,6.3l-0.5,3.1l4.2,1.9l11.1-6.5l0.8-2.1l4.8,1.6l-0.8,5.2l-2.1-0.5
		l-11.5,6.8c-0.8,0.4-1.3,1.2-1.4,2.3l0.9,0.4l-0.2,0.7l-5.6-1.8c0-2.6,1-4.5,3-5.6c-3.3-1.5-6.1-2.5-8-3.1l1-4.8l-2.7-1.1l0.2-0.7
		c1.3,0.2,2.6,0.3,4,0.4l11.8-6.9c0.4-0.5,0.6-1.3,0.7-2.1l-1.1-0.6l0.2-0.7L125.3,341.8z"/>
	<path fill="#111820" d="M100.6,339.8l13.6-6.5l0.9-3.5l-1.7-0.9l0.4-0.8l5.7,2.6c-0.7,3-1,5.6-0.7,7.7c-1.3-0.4-2.6-0.3-4,0.3
		l-12.1,5.7l0.8,1.7l-0.7,0.3l-10.6-2.6l5.9-2.9l-2.3-4.9l2.4-1.1L100.6,339.8z"/>
	<path fill="#111820" d="M113.4,316.1c-0.9,3.3-1,6.8-0.5,10.4c-1.1-0.6-2.4-0.6-4.2,0.1l-11.5,4.3c-1.7-2.4-3.9-4.2-6.5-5.6
		c0.8-3.9,0.9-6.9,0.4-9.2l15.8-5.9C108.9,312.8,111.1,314.7,113.4,316.1z M95.2,319.8l0,6.5l13.4-5c0-1.3,0.1-2.6,0-4
		c0-1,0-1.9-0.1-2.5L95.2,319.8z"/>
	<path fill="#111820" d="M85.6,281.1l-2.4,3.7l1.9,1.8l13.2-2.4l1.6-3.2l-1.3-1.3l0.5-0.7l4.9,4c-1.3,2.3-2.2,4.8-2.7,7.4
		c-0.9-0.8-2.2-1-3.9-0.7l-10.3,1.9c-0.9,0.2-1.6,0.7-2.1,1.7l0.7,0.8l-0.5,0.7l-4.6-3.7c0.4-1.2,0.7-2,1.1-2.5
		c0.5-0.6,1.2-1.1,2.3-1.5l-4.9-4.5l3-4.1L85.6,281.1z"/>
	<path fill="#111820" d="M90.9,269l5.4-0.5l1.5-4.6l-2.5-3.3l0.6-0.6c0.7,0.8,1.4,1.7,2.2,2.7l3.6,4.3c-1,2.4-1.7,5-1.9,7.5
		c-1.1-0.9-2.4-1.3-3.9-1.1L82,274.7c-1.3-2.3-2.9-4.6-4.8-6.7l6-7.4C86.3,264.1,88.8,266.9,90.9,269z M80.8,270l8.9-0.9l-4.4-4.6
		L80.8,270z"/>
	<path fill="#111820" d="M100.6,243.3c-1.2,2.3-3,3.4-5.5,3.5l5.8,7.1l0,0.3c-2.2,2.5-4.4,3.8-6.6,3.9c-3.2,0.1-6.4-1.6-9.5-5.1
		l-6.4,2.7l0-0.7c0.1-2-0.6-3.8-2.1-5.4l2.3-7.6l-1.2-1.5l0.2-0.1c1.3,0.8,2.6,1.4,4,1.7l13.6-0.2c0.9-0.3,1.4-0.8,1.6-1.5l-0.5-0.9
		l0.5-0.6L100.6,243.3z M81.4,247l-2.7,7.7l5.9-2.3l2.5-5.5L81.4,247z M88.1,246.8l-2.6,5.6c1.8,1,3.5,1.5,5.1,1.5
		c2.3,0,4.5-1.1,6.5-3.2l-3.4-3.9L88.1,246.8z"/>
	<path fill="#111820" d="M101.4,230c-1.6,1.6-3.1,3.9-4.6,7.2c-0.9-1-2.1-1.6-3.6-1.7l-20.6-1.7c-1-0.1-2.2,0.4-3.5,1.5
		c0.4-1.3,1.1-2.4,1.9-3.3l0-0.6c-1.4-1.8-2.1-3.7-2.2-5.7c1.1,1.8,2.6,2.8,4.5,3l21.8,1.8l2.7-3.7l-0.8-1.3l0.7-0.6L101.4,230z"/>
	<path fill="#111820" d="M76,216.6l-0.1,0.7l-5-2l0.6-3.9L76,216.6z M102.7,219.5c-1.6,2.2-3.5,3-5.7,2.5l-0.9-0.2l-13.4-2l-1.8,1.3
		l-2.6-4.3l3.9-3.6l1.2,1.5l14.2,2.1c0.7-0.1,1.3-0.4,1.9-1.2l-0.5-1l0.5-0.5L102.7,219.5z"/>
	<path fill="#111820" d="M84.2,202.6l14.8,3.1l2.8-2.3l-0.8-1.7l0.8-0.4l3,5.5c-2.4,2-4.2,3.9-5.2,5.7c-0.8-1.1-1.9-1.9-3.4-2.2
		l-13.1-2.8l-0.4,1.8l-0.7-0.2l-6.8-8.5l6.5,1.3l1.1-5.3l2.6,0.5L84.2,202.6z"/>
	<path fill="#111820" d="M102.1,183.1c1.2,2.1,2.2,4.8,2.7,8c0.2,1.3,0.6,3.2,1.1,5.4c0.8,2.7,1.7,4.3,2.8,4.6l0.3,0
		c0.9,0.3,1.7,0,2.4-0.8c0.6-0.6,1-1.4,1.3-2.4c0.4-1.3,0.4-2.5,0.1-3.4c-0.6-1.2-0.8-2.1-0.6-2.5c0.1-0.3,0.2-0.4,0.5-0.5
		c0.1,0,0.2,0,0.4,0c0.7,0.2,1.1,1.1,1.1,2.7c0,1.2-0.1,2.2-0.3,3.1l-0.2,0.7c-1,3.2-2.4,4.7-4.4,4.3l-0.4-0.1
		c-1-0.3-2.2-1.4-3.5-3.2c-1.3-1.9-2.2-2.9-2.6-3l-13.2-4c-0.8-0.3-1.7-0.1-2.7,0.5l0.7,2l-0.8,0.4l-2.7-6.1
		c1.8-1.8,3.9-2.4,6.3-1.7l-3.2-8.4c2.8-1.4,5.7-1.7,8.8-0.7C98.5,178.7,100.5,180.4,102.1,183.1z M90,183.4l1.6,4.2l12.2,3.7
		c-0.7-2-1.7-3.7-2.9-5.3c-1.5-1.8-3.1-2.9-4.8-3.4C93.8,182,91.8,182.2,90,183.4z"/>
	<path fill="#111820" d="M125.5,151.9c-2.4,1.3-4.5,1.4-6.4,0.4l1.2,9.2c-2.3,1.3-4.6,1.4-6.9,0.2l-12.1-6.3l-1.2,0.4l0.1,1.4
		l-0.8,0.2l-1-6.3l4.6-2.2l0.4,2l12.2,6.4c0.9,0.5,1.9,0.3,3.1-0.5l-0.7-5.2l-11.5-6l-2,0.4l-1-4.8l4.5-2.1l0.4,2l13.1,6.8
		c0.5,0.3,1.2,0,2.2-0.6l-0.1-1.1l0.7-0.2L125.5,151.9z"/>
	<path fill="#111820" d="M119.2,119.5l2.6,7.6l5.3-2.5l7.9,5.3c-0.3,1.2-0.6,2.4-0.6,3.7c0,0.7-0.1,1.9-0.1,3.7
		c-1.7,1-3.1,2.2-4.1,3.7c-1,1.5-1.6,3.1-2,5.1l-0.8,0.3l-3.8-10.1l-5.1,2.7l-6.6-4.4c0.5-2.6,0.5-5.2,0-7.8
		c2.8-1.6,4.6-3.1,5.5-4.5l0.6-1.2c0.6-0.8,0.4-2.1-0.4-2.7c-0.3-0.2-1-0.2-2.3-0.1l-0.5,0c-0.5-0.3-0.5-0.8,0-1.5
		c0.6-0.9,1.4-1,2.5-0.3C118,116.9,118.6,117.9,119.2,119.5z M118.2,126.7c-0.9,1.3-2.2,2.6-3.9,3.8l4.9,3.4l3.1-1.8l-2.7-8
		C119.3,124.9,118.8,125.8,118.2,126.7z M123.3,131.3l2.9,9c0.4-0.9,0.9-1.9,1.7-3c1-1.5,2.5-2.9,4.3-4l-5.7-3.9L123.3,131.3z"/>
	<path fill="#111820" d="M120.9,110.3l-0.4,0.5l-3.4-4.3l2.4-3.1L120.9,110.3z M142.6,126.1c-2.5,1.1-4.5,0.9-6.2-0.6l-0.7-0.6
		l-10.6-8.4l-2.2,0.2l-0.1-5l5.1-1.2l0.3,1.9l11.3,8.9c0.6,0.3,1.4,0.3,2.2-0.1l0.1-1.1l0.7-0.1L142.6,126.1z"/>
	<path fill="#111820" d="M157.6,108.9c-2.9,0.8-4.5,0.3-6.8-1.9l-9.1-8.4l-3.1,0.4l-0.6,4.6l9.4,8.7l2.3,0.1l-0.2,5.1l-5.2,0.7
		l-0.2-2.2l-9.8-9.1c-0.6-0.6-1.5-0.9-2.6-0.7l-0.2,1l-0.8,0l0.1-5.8c2.5-0.8,4.6-0.3,6.3,1.2c0.5-3.6,0.7-6.5,0.7-8.6l4.9-0.4
		l0.3-2.9l0.8,0c0.2,1.3,0.4,2.6,0.8,3.9l10,9.3c0.6,0.2,1.4,0.2,2.2,0l0.3-1.2l0.7,0L157.6,108.9z"/>
	<path fill="#111820" d="M161.7,79.2l8.2,9.4c0.8,0.9,2.3,1.6,4.4,2.2c2.2,0.5,3.4,1,3.8,1.4l0.1,0.2c0.7,1,0.5,2.7-0.5,5
		c0,0-0.4,1-1.3,2.9c-2.5,1.2-4.4,2.4-5.8,3.6c-1.5,1.3-2.8,2.9-4,4.9l-1.5,0l0.1-8.6l-6,0.7l-11.2-12.8c0.8-1,1.5-2.3,2.2-3.9
		c0.1-0.3,0.7-1.7,1.7-4l8.5-2.6l1.4-4.5l3.2,3.7L161.7,79.2z M158.1,82.1l-6.3,3l9.7,11.1l4-0.6l0.3-4.6L158.1,82.1z M171.4,94.7
		c-1.8-0.4-3.3-1.2-4.7-2.5l-0.3,11.2c0.7-0.9,1.7-1.9,3.2-3.2c2-1.7,4.4-3.2,7.3-4.5l-0.3-0.5C174.2,95.2,172.5,95,171.4,94.7z"/>
</g>
<g>
	<path fill="#111820" d="M59.3,560.7V517h4.3v37.2h24.1v6.5H59.3z"/>
	<path fill="#111820" d="M118.3,523.6H95.1c-0.2,0-0.4,0.1-0.6,0.4c-0.2,0.3-0.3,0.6-0.3,0.9v27.9c0,0.4,0.1,0.7,0.3,0.9
		c0.2,0.3,0.4,0.4,0.6,0.4h23.2v6.5H95.1c-1.4,0-2.6-0.8-3.6-2.3c-1-1.5-1.5-3.4-1.5-5.6v-27.9c0-2.2,0.5-4,1.5-5.6
		c1-1.5,2.2-2.3,3.6-2.3h23.2V523.6z"/>
	<path fill="#111820" d="M147.2,517h4.3v43.6h-4.3v-18.5h-20.5v18.5h-4.3V517h4.3v18.5h20.5V517z"/>
	<path fill="#111820" d="M181.9,517v6.5h-21.7v12h17.5v6.5h-17.5v12h21.7v6.5h-26V517H181.9z"/>
	<path fill="#111820" d="M202,537.2l11-20.2h5.1v43.6h-4.3v-34.9L202,547.4l-11.8-21.6v34.9h-4.3V517h5L202,537.2z"/>
	<path fill="#111820" d="M222.5,560.7V517h4.3v43.6H222.5z"/>
	<path fill="#111820" d="M259.4,523.6h-23.2c-0.2,0-0.4,0.1-0.6,0.4c-0.2,0.3-0.3,0.6-0.3,0.9v27.9c0,0.4,0.1,0.7,0.3,0.9
		c0.2,0.3,0.4,0.4,0.6,0.4h23.2v6.5h-23.2c-1.4,0-2.6-0.8-3.6-2.3c-1-1.5-1.5-3.4-1.5-5.6v-27.9c0-2.2,0.5-4,1.5-5.6
		c1-1.5,2.2-2.3,3.6-2.3h23.2V523.6z"/>
	<path fill="#111820" d="M383.2,525v12.2c0,2.1-0.5,4-1.5,5.5c-1,1.6-2.2,2.3-3.6,2.3h-2.9l8,14.7v0.9h-5l-8.5-15.6h-9.7
		c-0.2,0-0.5,0-0.9-0.1v15.7h-4.3v-43.6h23.2c1.4,0,2.6,0.8,3.6,2.3C382.7,521,383.2,522.8,383.2,525z M359.9,538.5h18.1
		c0.2,0,0.4-0.1,0.6-0.4c0.2-0.3,0.3-0.6,0.3-0.9V525c0-0.4-0.1-0.7-0.3-0.9c-0.2-0.3-0.4-0.4-0.6-0.4h-18.1c-0.2,0-0.4,0.1-0.6,0.4
		c-0.2,0.3-0.3,0.6-0.3,0.9v12.2c0,0.4,0.1,0.7,0.3,0.9S359.7,538.5,359.9,538.5z"/>
	<path fill="#111820" d="M415.6,523.6h-23.2c-0.2,0-0.4,0.1-0.6,0.4c-0.2,0.3-0.3,0.6-0.3,0.9v27.9c0,0.4,0.1,0.7,0.3,0.9
		c0.2,0.3,0.4,0.4,0.6,0.4h23.2v6.5h-23.2c-1.4,0-2.6-0.8-3.6-2.3c-1-1.5-1.5-3.4-1.5-5.6v-27.9c0-2.2,0.5-4,1.5-5.6
		c1-1.5,2.2-2.3,3.6-2.3h23.2V523.6z"/>
	<path fill="#111820" d="M444.5,517h4.3v43.6h-4.3v-18.5H424v18.5h-4.3V517h4.3v18.5h20.5V517z"/>
	<path fill="#111820" d="M479.3,517v6.5h-21.7v12h17.5v6.5h-17.5v12h21.7v6.5h-26V517H479.3z"/>
	<path fill="#111820" d="M482,517h28.4v6.5h-12.1v37.1H494v-37.1H482V517z"/>
	<path fill="#111820" d="M537.4,517h5l-13.1,27.3v16.4h-4.3v-16.4L512,517h5l10.2,19.9L537.4,517z"/>
	<path fill="#111820" d="M545.3,517.1h23.2c1.4,0,2.6,0.8,3.6,2.3s1.5,3.4,1.5,5.5v12.2c0,2.1-0.5,4-1.5,5.5c-1,1.6-2.2,2.3-3.6,2.3
		h-18.1c-0.2,0-0.5,0-0.9-0.1v15.7h-4.3V517.1z M569.4,537.2V525c0-0.4-0.1-0.7-0.3-0.9c-0.2-0.3-0.4-0.4-0.6-0.4h-18.1
		c-0.2,0-0.4,0.1-0.6,0.4c-0.2,0.3-0.3,0.6-0.3,0.9v12.2c0,0.4,0.1,0.7,0.3,0.9c0.2,0.3,0.4,0.4,0.6,0.4h18.1c0.2,0,0.4-0.1,0.6-0.4
		S569.4,537.6,569.4,537.2z"/>
	<path fill="#111820" d="M602.5,517v6.5h-21.7v12h17.5v6.5h-17.5v12h21.7v6.5h-26V517H602.5z"/>
	<path fill="#111820" d="M634.8,524.9v2.5h-4.3v-2.5c0-0.4-0.1-0.7-0.3-0.9c-0.2-0.3-0.4-0.4-0.6-0.4h-18.1c-0.2,0-0.4,0.1-0.6,0.4
		c-0.2,0.3-0.3,0.6-0.3,0.9v9.3c0,0.4,0.1,0.7,0.3,0.9c0.2,0.3,0.4,0.4,0.6,0.4h18.1c1.4,0,2.6,0.8,3.6,2.3c1,1.5,1.5,3.4,1.5,5.6
		v9.3c0,2.2-0.5,4-1.5,5.6c-1,1.5-2.2,2.3-3.6,2.3h-18.1c-1.4,0-2.6-0.8-3.6-2.3c-1-1.5-1.5-3.4-1.5-5.6v-2.5h4.3v2.5
		c0,0.4,0.1,0.7,0.3,0.9s0.4,0.4,0.6,0.4h18.1c0.2,0,0.4-0.1,0.6-0.4c0.2-0.3,0.3-0.6,0.3-0.9v-9.3c0-0.4-0.1-0.7-0.3-0.9
		c-0.2-0.3-0.4-0.4-0.6-0.4h-18.1c-1.4,0-2.6-0.8-3.6-2.3c-1-1.5-1.5-3.4-1.5-5.6v-9.3c0-2.2,0.5-4,1.5-5.6c1-1.5,2.2-2.3,3.6-2.3
		h18.1c1.4,0,2.6,0.8,3.6,2.3C634.3,520.9,634.8,522.7,634.8,524.9z"/>
</g>
<polygon fill="#111820" points="8.3,563.6 2.1,560.4 31.6,502 56,560.7 49.5,563.4 31,518.7 "/>
<polygon fill="#111820" points="304,562.2 297.7,559.1 327.3,500.6 351.6,559.3 345.1,562 326.6,517.4 "/>
</svg>
