<?xml version="1.0" encoding="utf-8"?>
<!-- Generator: Adobe Illustrator 18.1.0, SVG Export Plug-In . SVG Version: 6.00 Build 0)  -->
<!DOCTYPE svg PUBLIC "-//W3C//DTD SVG 1.1//EN" "http://www.w3.org/Graphics/SVG/1.1/DTD/svg11.dtd">
<svg version="1.1" id="Layer_1" xmlns="http://www.w3.org/2000/svg" xmlns:xlink="http://www.w3.org/1999/xlink" x="0px" y="0px"
	 viewBox="0 0 207.2 230.1" enable-background="new 0 0 207.2 230.1" xml:space="preserve">
<rect x="2" y="0" fill="#464747" width="205.2" height="230.1"/>
<rect x="32.8" y="92.8" fill="#4C719E" stroke="#464747" stroke-width="3" stroke-miterlimit="10" width="45.3" height="64.6"/>
<g>
	<g>
		<path fill="none" stroke="#4C719E" stroke-width="3" stroke-miterlimit="10" d="M78.1,130.9c0,0,2.1-0.8,5.7-1.8"/>
		<path fill="none" stroke="#4C719E" stroke-width="3" stroke-miterlimit="10" stroke-dasharray="13.6421,13.6421" d="M97.1,125.9
			c12.8-2.4,30.4-3.9,47.4,0.6"/>
		<path fill="none" stroke="#4C719E" stroke-width="3" stroke-miterlimit="10" d="M151,128.6c1.9,0.7,3.7,1.4,5.5,2.3"/>
	</g>
</g>
<rect x="157.4" y="95.3" fill="#4C719E" stroke="#464747" stroke-width="3" stroke-miterlimit="10" width="42.1" height="65.2"/>
<g>
	<g>
		<path fill="none" stroke="#4C719E" stroke-width="3" stroke-miterlimit="10" d="M176.1,163.5c0,0,0.6,2.5-1.2,5.8"/>
		<path fill="none" stroke="#4C719E" stroke-width="3" stroke-miterlimit="10" stroke-dasharray="14.0688,14.0688" d="M164.1,178
			c-4.7,2.2-11.2,4.2-20.3,5.7"/>
		<path fill="none" stroke="#4C719E" stroke-width="3" stroke-miterlimit="10" d="M136.9,184.7c-1.9,0.2-3.9,0.4-6,0.6"/>
	</g>
</g>
<rect x="83.9" y="151.1" fill="#4C719E" stroke="#464747" stroke-width="3" stroke-miterlimit="10" width="44.8" height="63.8"/>
<g>
	<path fill="#FCFCFC" d="M53.5,111.6h-5.8v-4c3.3-1.7,6.3-3.4,8.7-5.5h3.7v43.4h-6.6V111.6z"/>
</g>
<g>
	<path fill="#FCFCFC" d="M168.7,145.5v-5.7c9.1-13.3,14.1-20.7,14.1-27c0-3.4-1.3-4.9-3.3-4.9c-2.4,0-3.6,1.8-3.6,4.4v2.9h-7v-2
		c0-6.3,4-11.1,10.9-11.1c6,0,10,4.5,10,9.5c0,6.8-2.1,11.7-13.6,27.8h13v6H168.7z"/>
</g>
<g>
	<path fill="#FCFCFC" d="M102.8,190.1v2.9c0,2.7,1.1,4.3,3.3,4.3c2.1,0,3.5-1.5,3.5-5V189c0-4.6-1.8-6-6.3-6v-5.8c4.3,0,6-1.4,6-6.5
		c0-4-0.8-5.7-3-5.7c-2.1,0-3.3,1-3.3,4.4v1.8h-6.6v-2c0-5.8,3.6-10,10-10c6.3,0,9.5,5.3,9.5,11c0,5-0.8,7.8-4.6,9.8
		c4.3,2.3,5.3,4.8,5.3,10.6c0,8.5-3.4,12.6-10.7,12.6c-6.1,0-9.8-3.1-9.8-10.4v-2.5H102.8z"/>
</g>
<g>
	<polygon fill="#4C719E" points="3,30.9 77.2,1 166.1,1 3,121.9 	"/>
	<path fill="#464747" d="M163.1,2L4,120V31.6L77.4,2H163.1 M169.1,0H77L2,30.3v93.7L169.1,0L169.1,0z"/>
</g>
<path fill="none" stroke="#4C719E" stroke-width="3" stroke-miterlimit="10" stroke-dasharray="12" d="M80.3,194.6
	c0,0-28.5-12.8-42,31.6"/>
<g>
	<g>
		<path fill="#FCFCFC" d="M26.5,91.1L5.7,60.6l14.6-10l3.1,4.6L14,61.6l5.4,7.8l7-4.8l3.1,4.6l-7,4.8l9.2,13.5L26.5,91.1z"/>
		<path fill="#FCFCFC" d="M50.5,74.7l-5.2,3.6L24.4,47.8l7.3-5c5.9-4,10.6-3.6,15,2.9c3.4,4.9,2.8,8.2,1.6,10.2l13.9,10.8l-5.3,3.6
			L44.5,60.2c-0.6,0.5-1.7,1.3-2.6,2L50.5,74.7z M39,57.9l1.9-1.3c2.8-1.9,3.2-3.7,0.7-7.3c-2.5-3.6-4.3-4-7.1-2l-1.9,1.3L39,57.9z"
			/>
		<path fill="#FCFCFC" d="M66.3,63.8L45.5,33.3l14-9.6l3.1,4.6l-8.8,6l5.4,7.8l6.8-4.6l3.1,4.6l-6.8,4.6l6.1,8.9l9.4-6.4l3.1,4.6
			L66.3,63.8z"/>
		<path fill="#FCFCFC" d="M85.1,51L64.2,20.5l14-9.6l3.1,4.6l-8.8,6l5.4,7.8l6.8-4.6l3.1,4.6l-6.8,4.6l6.1,8.9l9.4-6.4l3.1,4.6
			L85.1,51z"/>
	</g>
</g>
</svg>
