<?xml version="1.0" encoding="utf-8"?>
<!-- Generator: Adobe Illustrator 18.1.0, SVG Export Plug-In . SVG Version: 6.00 Build 0)  -->
<!DOCTYPE svg PUBLIC "-//W3C//DTD SVG 1.1//EN" "http://www.w3.org/Graphics/SVG/1.1/DTD/svg11.dtd">
<svg version="1.1" id="Layer_1" xmlns="http://www.w3.org/2000/svg" xmlns:xlink="http://www.w3.org/1999/xlink" x="0px" y="0px"
	 viewBox="0 0 205.2 230.1" enable-background="new 0 0 205.2 230.1" xml:space="preserve">
<rect x="0" y="0" fill="#464747" width="205.2" height="230.1"/>
<rect x="6.6" y="38" fill="#4C719E" stroke="#464747" stroke-width="3" stroke-miterlimit="10" width="52.6" height="75"/>
<g>
	<g>
		<path fill="none" stroke="#4C719E" stroke-width="3" stroke-miterlimit="10" d="M59.2,82.1c0,0,2.1-0.8,5.7-1.9"/>
		<path fill="none" stroke="#4C719E" stroke-width="3" stroke-miterlimit="10" stroke-dasharray="11.5894,11.5894" d="M76.1,77.4
			c15.7-3.4,40.1-6.4,63.1,0.5"/>
		<path fill="none" stroke="#4C719E" stroke-width="3" stroke-miterlimit="10" d="M144.7,79.8c1.9,0.7,3.7,1.5,5.5,2.3"/>
	</g>
</g>
<rect x="151.3" y="40.8" fill="#4C719E" stroke="#464747" stroke-width="3" stroke-miterlimit="10" width="48.8" height="75.7"/>
<g>
	<g>
		<path fill="none" stroke="#4C719E" stroke-width="3" stroke-miterlimit="10" d="M172.9,120c0,0,0.6,2.4-1,5.8"/>
		<path fill="none" stroke="#4C719E" stroke-width="3" stroke-miterlimit="10" stroke-dasharray="10.1869,10.1869" d="M165.2,133.4
			c-5.9,4.2-16.1,8.3-33.7,10.7"/>
		<path fill="none" stroke="#4C719E" stroke-width="3" stroke-miterlimit="10" d="M126.5,144.7c-1.9,0.2-3.9,0.4-6,0.6"/>
	</g>
</g>
<rect x="65.9" y="105.6" fill="#4C719E" stroke="#464747" stroke-width="3" stroke-miterlimit="10" width="52" height="74.1"/>
<g>
	<g>
		<path fill="none" stroke="#4C719E" stroke-width="3" stroke-miterlimit="10" d="M89.3,182.1c0,0,1.8,1.3,5.1,3.1"/>
		<path fill="none" stroke="#4C719E" stroke-width="3" stroke-miterlimit="10" stroke-dasharray="13.2086,13.2086" d="M106.5,190.5
			c9.8,3.5,23.1,6.3,37.4,3.8c18.6-3.2,18.8,10.6,16.3,21.5"/>
		<path fill="none" stroke="#4C719E" stroke-width="3" stroke-miterlimit="10" d="M158.4,222.2c-1.1,3.3-2.1,5.6-2.1,5.6"/>
	</g>
</g>
<text transform="matrix(1 0 0 1 18.472 99.1421)" fill="#FCFCFC" font-family="'TradeGothicLTStd-BdCn20'" font-size="68.7917">1</text>
<text transform="matrix(1 0 0 1 161.3216 99.142)" fill="#FCFCFC" font-family="'TradeGothicLTStd-BdCn20'" font-size="68.7917">2</text>
<text transform="matrix(1 0 0 1 77.0079 165.3247)" fill="#FCFCFC" font-family="'TradeGothicLTStd-BdCn20'" font-size="68.7917">3</text>
</svg>
