<?xml version="1.0" encoding="utf-8"?>
<!-- Generator: Adobe Illustrator 18.1.0, SVG Export Plug-In . SVG Version: 6.00 Build 0)  -->
<!DOCTYPE svg PUBLIC "-//W3C//DTD SVG 1.1//EN" "http://www.w3.org/Graphics/SVG/1.1/DTD/svg11.dtd">
<svg version="1.1" id="Layer_1" xmlns="http://www.w3.org/2000/svg" xmlns:xlink="http://www.w3.org/1999/xlink" x="0px" y="0px"
	 viewBox="0 0 184 184" enable-background="new 0 0 184 184" xml:space="preserve">
<circle fill="#375370" cx="92" cy="92" r="92"/>
<path fill="#F7F8F9" d="M154.7,139.3H29.2c-0.7,0-1.3-0.6-1.3-1.3V45.9c0-0.7,0.6-1.3,1.3-1.3h125.5c0.7,0,1.3,0.6,1.3,1.3V138
	C156,138.8,155.4,139.3,154.7,139.3z"/>
<line fill="none" stroke="#375370" stroke-width="2" stroke-miterlimit="10" x1="92" y1="38.3" x2="92" y2="139.3"/>
<rect x="33" y="49.8" fill="#375370" width="23" height="21.5"/>
<rect x="64.5" y="49.8" fill="#375370" width="21" height="31"/>
<rect x="33" y="77.3" fill="#375370" width="25.5" height="57"/>
<rect x="64.5" y="86.3" fill="#375370" width="21" height="19.5"/>
<rect x="64.5" y="113.3" fill="#375370" width="21" height="21"/>
<rect x="98.5" y="49.8" fill="#375370" width="51.5" height="34"/>
<rect x="98.5" y="92" fill="#375370" width="21.5" height="24.8"/>
<rect x="135.5" y="92" fill="#375370" width="14.5" height="24.8"/>
<rect x="124.2" y="92" fill="#375370" width="7.2" height="24.8"/>
<rect x="98.5" y="120.8" fill="#375370" width="51.5" height="13.5"/>
</svg>
