<?xml version="1.0" encoding="utf-8"?>
<!-- Generator: Adobe Illustrator 18.1.0, SVG Export Plug-In . SVG Version: 6.00 Build 0)  -->
<!DOCTYPE svg PUBLIC "-//W3C//DTD SVG 1.1//EN" "http://www.w3.org/Graphics/SVG/1.1/DTD/svg11.dtd">
<svg version="1.1" id="Layer_1" xmlns="http://www.w3.org/2000/svg" xmlns:xlink="http://www.w3.org/1999/xlink" x="0px" y="0px"
	 viewBox="0 0 205.2 230.1" enable-background="new 0 0 205.2 230.1" xml:space="preserve">
<rect x="0" y="0" fill="#464747" width="205.2" height="230.1"/>
<rect x="70.4" y="92.6" fill="#4C719E" stroke="#464747" stroke-width="3" stroke-miterlimit="10" width="68.9" height="98.1"/>
<g>
	<path fill="#FCFCFC" d="M91.1,100.1v11.4h-1.7v-8.9h0l-1.8,8.9h-0.9l-1.8-8.9h0v8.9h-1.7v-11.4h2.6l1.4,6.7h0l1.4-6.7H91.1z"/>
	<path fill="#FCFCFC" d="M92.8,111.6v-1.9h1.9v1.9H92.8z"/>
	<path fill="#FCFCFC" d="M96.5,111.6v-11.4h5.3v1.7h-3.3v2.9h2.5v1.7h-2.5v3.4h3.5v1.7H96.5z"/>
	<path fill="#FCFCFC" d="M103.4,111.6v-1.9h1.9v1.9H103.4z"/>
	<path fill="#FCFCFC" d="M108.1,111.6h-1.9l2.1-11.4h2.4l2.1,11.4H111l-0.3-2.5h-2.2L108.1,111.6z M108.8,107.3h1.6l-0.8-4.9h0
		L108.8,107.3z"/>
	<path fill="#FCFCFC" d="M113.9,111.6v-1.9h1.9v1.9H113.9z"/>
	<path fill="#FCFCFC" d="M118.7,101.9h-1.9v-1.7h5.8v1.7h-1.9v9.7h-2V101.9z"/>
	<path fill="#FCFCFC" d="M122.7,111.6v-1.9h1.9v1.9H122.7z"/>
</g>
<rect x="16.9" y="116.4" fill="#4C719E" stroke="#464747" stroke-width="3" stroke-miterlimit="10" width="68.9" height="98.1"/>
<g>
	<path fill="#FCFCFC" d="M23.8,123.9h2v8.6c0,0.8,0.3,1.2,1,1.2s1-0.4,1-1.2v-8.6h2v8.5c0,2-1.1,3-3,3s-3-1.1-3-3V123.9z"/>
	<path fill="#FCFCFC" d="M31.6,135.3v-8.5h1.7v0.9c0.7-0.6,1.1-1,2.2-1c0.9,0,1.5,0.7,1.5,1.8v6.9h-1.8v-6.6c0-0.4-0.3-0.6-0.6-0.6
		s-0.7,0.2-1.1,0.5v6.7H31.6z"/>
	<path fill="#FCFCFC" d="M44,131.4h-3.7v1.2c0,1,0.3,1.4,1,1.4s1-0.4,1-1.4v-0.2H44c0,1.8-0.8,3-2.8,3c-2,0-2.8-1.3-2.8-3.2v-2.5
		c0-1.9,0.7-3.2,2.8-3.2s2.8,1.3,2.8,3.2V131.4z M42.2,129.9v-0.4c0-1-0.3-1.4-1-1.4s-1,0.4-1,1.4v0.4H42.2z"/>
	<path fill="#FCFCFC" d="M44.9,128.2v-1.5h1v-2.3h1.8v2.3h1.2v1.5h-1.2v4.9c0,0.4,0.2,0.7,0.6,0.7h0.6v1.5c-0.2,0.1-0.4,0.1-0.9,0.1
		c-1.3,0-2.1-0.6-2.1-1.9v-5.3H44.9z"/>
	<path fill="#FCFCFC" d="M50,135.3v-11.4h1.8v3.7c0.6-0.6,1-0.9,2.1-0.9c0.9,0,1.5,0.7,1.5,1.8v6.9h-1.8v-6.6c0-0.4-0.3-0.6-0.6-0.6
		s-0.7,0.2-1.1,0.5v6.7H50z"/>
	<path fill="#FCFCFC" d="M57.1,125.5v-1.6h1.8v1.6H57.1z M57.1,135.3v-8.5h1.8v8.5H57.1z"/>
	<path fill="#FCFCFC" d="M64.2,129.7v-0.2c0-1-0.3-1.4-1-1.4s-1,0.4-1,1.4v3.1c0,1,0.3,1.4,1,1.4s1-0.4,1-1.4V132H66v0.2
		c0,1.9-0.7,3.2-2.8,3.2s-2.8-1.3-2.8-3.2v-2.5c0-1.9,0.7-3.2,2.8-3.2c2,0,2.7,1.2,2.8,3.1H64.2z"/>
	<path fill="#FCFCFC" d="M67.4,129.3c0.1-1.7,1.2-2.7,2.8-2.7c1.6,0,2.6,0.8,2.6,2.3v5.5c0,0.3,0.1,0.6,0.1,0.9h-1.7
		c0-0.2-0.1-0.5-0.1-0.7c-0.7,0.5-1.2,0.8-2.1,0.8c-1.2,0-1.8-0.8-1.8-1.9c0-1.9,1.2-2.9,3.8-3.9v-0.5c0-0.7-0.3-1.1-0.9-1.1
		c-0.8,0-1,0.5-1,1.2H67.4z M71.1,131c-1.6,0.9-2,1.5-2,2.2c0,0.6,0.3,0.8,0.8,0.8c0.5,0,0.9-0.4,1.2-0.8V131z"/>
	<path fill="#FCFCFC" d="M74.6,135.3v-11.4h1.8v11.4H74.6z"/>
</g>
<rect x="116.9" y="102.1" transform="matrix(0.9235 0.3836 -0.3836 0.9235 69.5737 -46.499)" fill="#4C719E" stroke="#464747" stroke-width="3" stroke-miterlimit="10" width="68.9" height="98.1"/>
<g>
	<path fill="#FCFCFC" d="M151,109c0.3-0.9-0.1-1.4-0.5-1.6c-0.6-0.2-1.1,0-1.3,0.7c-0.7,1.8,2.6,4.2,1.4,7.1c-0.7,1.7-2.3,2.2-4,1.5
		c-1.7-0.7-2.1-2.4-1.5-4.1l1.8,0.5c-0.4,1.1-0.2,1.8,0.4,2c0.6,0.3,1.2,0.1,1.5-0.5c0.9-2.1-2.6-4.2-1.3-7.2
		c0.7-1.7,2.1-2.2,3.9-1.5c1.5,0.6,1.9,2,1.5,3.6L151,109z"/>
	<path fill="#FCFCFC" d="M150.8,118.2l4.4-10.6l1.6,0.7l-1.4,3.4c0.8-0.3,1.3-0.5,2.3-0.1c0.9,0.4,1.1,1.2,0.7,2.2l-2.6,6.4
		l-1.6-0.7l2.5-6.1c0.2-0.4,0-0.7-0.3-0.8c-0.4-0.1-0.8-0.1-1.3,0.1l-2.6,6.2L150.8,118.2z"/>
	<path fill="#FCFCFC" d="M159.4,115.3c0.7-1.6,2.1-2,3.6-1.4c1.5,0.6,2.1,1.7,1.5,3.1l-2.1,5c-0.1,0.2-0.2,0.6-0.2,0.9l-1.6-0.6
		c0.1-0.2,0.1-0.5,0.2-0.6c-0.8,0.2-1.4,0.3-2.2,0c-1.1-0.5-1.4-1.5-0.9-2.5c0.7-1.7,2.2-2.2,5-2.1l0.2-0.5c0.3-0.7,0.2-1.1-0.4-1.3
		c-0.7-0.3-1.1,0.1-1.4,0.7L159.4,115.3z M162.1,118.3c-1.8,0.2-2.4,0.6-2.7,1.3c-0.2,0.5,0,0.8,0.5,1c0.5,0.2,1,0,1.4-0.3
		L162.1,118.3z"/>
	<path fill="#FCFCFC" d="M165.8,116.9l0.6-1.3l0.9,0.4l0.9-2.1l1.6,0.7l-0.9,2.1l1.1,0.5l-0.6,1.3l-1.1-0.5l-1.9,4.5
		c-0.2,0.4-0.1,0.7,0.3,0.9l0.5,0.2l-0.6,1.4c-0.2,0-0.4-0.1-0.9-0.3c-1.2-0.5-1.7-1.4-1.2-2.6l2-4.9L165.8,116.9z"/>
	<path fill="#FCFCFC" d="M169.9,118.5l0.6-1.3l0.9,0.4l0.9-2.1l1.6,0.7l-0.9,2.1l1.1,0.5l-0.6,1.3l-1.1-0.5l-1.9,4.5
		c-0.2,0.4-0.1,0.7,0.3,0.9l0.5,0.2l-0.6,1.4c-0.2,0-0.4-0.1-0.9-0.3c-1.2-0.5-1.7-1.4-1.2-2.6l2-4.9L169.9,118.5z"/>
	<path fill="#FCFCFC" d="M178.4,125.5l-3.4-1.4l-0.5,1.1c-0.4,0.9-0.2,1.4,0.4,1.7c0.6,0.2,1.1,0,1.4-0.9l0.1-0.2l1.6,0.7
		c-0.7,1.7-1.9,2.5-3.7,1.8c-1.9-0.8-2-2.3-1.3-4l1-2.3c0.7-1.7,1.9-2.6,3.8-1.9c1.9,0.8,2,2.3,1.3,4L178.4,125.5z M177.3,123.4
		l0.2-0.4c0.4-0.9,0.2-1.4-0.4-1.7c-0.6-0.2-1.1,0-1.4,0.9l-0.2,0.4L177.3,123.4z"/>
	<path fill="#FCFCFC" d="M178.4,129.7l3.3-7.9l1.6,0.6l-0.4,0.9l0,0c0.7-0.5,1.5-0.6,2.3-0.3l0.3,0.1l-0.7,1.7
		c-0.3-0.2-0.5-0.4-1-0.6c-0.6-0.2-1.2-0.1-1.5,0.6l-2.2,5.4L178.4,129.7z"/>
	<path fill="#FCFCFC" d="M142.3,135.3l4.4-10.5l1.6,0.7l-4.4,10.5L142.3,135.3z"/>
	<path fill="#FCFCFC" d="M147.7,131c0.8-1.6,2.1-2,3.7-1.4c1.5,0.6,2.1,1.7,1.5,3.1l-2.1,5c-0.1,0.2-0.2,0.6-0.2,0.9l-1.6-0.6
		c0.1-0.2,0.1-0.5,0.2-0.6c-0.8,0.2-1.4,0.3-2.2,0c-1.1-0.5-1.4-1.5-0.9-2.5c0.7-1.7,2.3-2.2,5-2.1l0.2-0.5c0.3-0.7,0.2-1.1-0.4-1.3
		c-0.7-0.3-1.1,0.1-1.4,0.7L147.7,131z M150.4,134c-1.8,0.2-2.4,0.6-2.7,1.3c-0.2,0.5,0,0.8,0.5,1c0.5,0.2,1,0,1.4-0.3L150.4,134z"
		/>
	<path fill="#FCFCFC" d="M152,139.3l3.3-7.9l1.5,0.6l-0.3,0.8c0.9-0.3,1.4-0.5,2.4-0.1c0.9,0.4,1.1,1.2,0.7,2.2l-2.6,6.4l-1.6-0.7
		l2.5-6.1c0.2-0.4,0-0.7-0.3-0.8c-0.4-0.1-0.8-0.1-1.3,0.1l-2.6,6.2L152,139.3z"/>
	<path fill="#FCFCFC" d="M161.9,143.4l0.3-0.8l0,0c-0.8,0.5-1.3,0.6-2.2,0.2c-1-0.4-1.4-1.5-0.8-2.9l1.6-3.8
		c0.6-1.4,1.6-1.9,2.6-1.5c0.7,0.3,0.9,0.7,1.4,1.5l1.4-3.4l1.6,0.7l-4.4,10.5L161.9,143.4z M164.4,137.1c-0.2-0.4-0.4-0.7-0.8-0.8
		c-0.4-0.2-0.9-0.1-1.3,0.9l-1.2,2.9c-0.4,1-0.2,1.4,0.3,1.6c0.3,0.1,0.7,0.1,1.1,0L164.4,137.1z"/>
	<path fill="#FCFCFC" d="M170.3,140.3c0.1-0.7,0-1.1-0.5-1.4c-0.4-0.2-0.8-0.1-1,0.3c-0.5,1.2,2.4,3,1.4,5.3
		c-0.6,1.4-1.8,1.7-3.2,1.2c-1.4-0.6-1.9-1.8-1.6-3.2l1.6,0.2c-0.2,0.7-0.2,1.4,0.6,1.7c0.4,0.2,0.8,0.1,1-0.4
		c0.6-1.4-2.3-3.1-1.4-5.3c0.5-1.2,1.8-1.7,3.1-1.2c1.3,0.5,1.8,1.8,1.5,3.1L170.3,140.3z"/>
</g>
<g>
	<polygon fill="#4C719E" points="1,30.9 75.2,1 164.1,1 1,121.9 	"/>
	<path fill="#464747" d="M161.1,2L2,120V31.6L75.4,2H161.1 M167.2,0H75L0,30.3v93.7L167.2,0L167.2,0z"/>
</g>
<g>
	<g>
		<path fill="#FCFCFC" d="M17.2,32.1l3.2-1.8L23,35c3.3-1.1,7-0.8,10.1,0.8L31,41.5c-1.5-0.9-3.2-1.8-5.1-1.2L32,51.3
			c6.1,0.4,11.9,1.1,15.3,7.1c3,5.3,2.4,11.6-2.9,15.2l3.4,6.2l-3.2,1.8l-3.4-6.2c-3.9,1.7-8.4,0.7-12-1.3l2.6-5.8
			c1.7,1.5,4.2,2.5,6.6,1.9l-6.9-12.6c-5.5-0.2-11.4-1.3-14.2-6.5c-2.7-5-2.2-10.8,2.7-14.4L17.2,32.1z M22.7,42
			c-1.4,1.5-1.5,3.6-0.5,5.4c1.3,2.4,3.1,3.3,5.6,3.9L22.7,42z M41.5,68.5c1.7-2.1,1.6-4.2,0.2-6.6c-1.4-2.6-3.4-3.3-6.1-3.9
			L41.5,68.5z"/>
		<path fill="#FCFCFC" d="M47.2,32.1L41.9,35l-2-3.6c2.1-3.1,4-6.2,5.1-9.3l3.4-1.9l21.6,39.2l-6,3.3L47.2,32.1z"/>
		<path fill="#FCFCFC" d="M65,24.9c-4-7.3-3.1-12.1,3.6-15.8c6.6-3.7,11.2-1.9,15.3,5.4L94.1,33c4,7.3,3.1,12.1-3.6,15.8
			c-6.6,3.7-11.2,1.9-15.3-5.4L65,24.9z M76.6,16.3c-1.4-2.5-3.2-3.1-5.1-2c-2,1.1-2.5,2.9-1.1,5.4l12.1,21.8c1.4,2.5,3.2,3.1,5.1,2
			c2-1.1,2.5-2.9,1.1-5.4L76.6,16.3z"/>
	</g>
</g>
</svg>
