<?xml version="1.0" encoding="utf-8"?>
<!-- Generator: Adobe Illustrator 19.0.0, SVG Export Plug-In . SVG Version: 6.00 Build 0)  -->
<!DOCTYPE svg PUBLIC "-//W3C//DTD SVG 1.1//EN" "http://www.w3.org/Graphics/SVG/1.1/DTD/svg11.dtd">
<svg version="1.1" id="Layer_1" xmlns="http://www.w3.org/2000/svg" xmlns:xlink="http://www.w3.org/1999/xlink" x="0px" y="0px"
	 viewBox="-98.4 531.5 114.5 138.2" style="enable-background:new -98.4 531.5 114.5 138.2;" xml:space="preserve">
<style type="text/css">
	.st0{fill:#49C1C0;}
	.st1{fill:#ED1D25;}
	.st2{fill:#8A181B;}
	.st3{fill:#FFFFFF;}
	.st4{fill:#ED1C24;}
</style>
<path class="st0" d="M-14.4,549.3c0,0,3.1,11.1-3.7,5.4c-6.8-5.8-15.3-20.5-22.9-23.2c-7.7,2.7-16.2,17.5-22.9,23.2
	c-6.8,5.7-3.7-5.4-3.7-5.4c-16.9,14.1-7.7,48.3-7.7,48.3s18,10,18,29.7h16.2h16.2c0-19.7,18-29.7,18-29.7S2.5,563.5-14.4,549.3z"/>
<path class="st1" d="M-41.1,564.2c-31.3,0-29.1,29.6-29,31.7c0,0,16.7,8.8,16.7,26.3h12.3h12.1c0-17.4,16.9-26.3,16.9-26.3
	C-12,593.8-9.8,564.2-41.1,564.2z"/>
<path class="st2" d="M-41.1,567.5c-27.7,0-25.8,26.2-25.7,28.1c0,0,16,7.8,16,23.2h9.7h9.6c0-15.4,16-23.2,16-23.2
	C-15.3,593.7-13.4,567.5-41.1,567.5z"/>
<g>
	<circle class="st3" cx="-52.9" cy="595.6" r="5.7"/>
	<circle class="st3" cx="-29.2" cy="595.6" r="5.7"/>
</g>
<g>
	<circle class="st3" cx="-47.1" cy="606.5" r="2.1"/>
	<circle class="st3" cx="-35.1" cy="606.5" r="2.1"/>
</g>
<g>
	<path class="st4" d="M-85.7,647.4l4.6-16.6h3l4.4,16.6v1.7h-12V647.4z M-76.3,646.8l-2.2-7.7c-0.3-1.5-0.9-3.5-1.1-4.7h-0.1
		c-0.2,1-0.8,2.8-1.1,4.4l-2.3,8.1H-76.3z"/>
	<path class="st4" d="M-71.8,649.1V631h3.1v15.4h4.9v2.7L-71.8,649.1L-71.8,649.1z"/>
	<path class="st4" d="M-55.8,637v-1.4c0-1.5-0.7-2.2-1.5-2.2c-1.2,0-1.7,0.7-1.7,2v9.2c0,1.3,0.4,2,1.7,2c1.1,0,1.5-0.7,1.5-1.8
		v-2.2h3.1v2.1c0,2.6-1.5,4.6-4.6,4.6c-3.2,0-4.7-2.1-4.7-4.6v-9.3c0-2.6,1.5-4.6,4.7-4.6c3.1,0,4.6,2.3,4.6,5v1.3L-55.8,637
		L-55.8,637z"/>
	<path class="st4" d="M-50.3,649.1V631h3.1v7.4h3.3V631h3.1v18.1h-3.1v-8h-3.3v8H-50.3z"/>
	<path class="st4" d="M-38.3,649.1V631h8.3v2.7h-5.2v4.6h4v2.7h-4v5.3h5.6v2.7L-38.3,649.1L-38.3,649.1z"/>
	<path class="st4" d="M-15,631V649h-2.7v-14.1h-0.1l-2.8,14.1h-1.5l-2.8-14.1H-25v14.1h-2.7V631h4.1l2.2,10.6h0.1l2.2-10.6L-15,631
		L-15,631z"/>
	<path class="st4" d="M-12.4,649.1V631h3.1v18.1H-12.4z"/>
	<path class="st4" d="M-0.5,637v-1.4c0-1.5-0.7-2.2-1.5-2.2c-1.2,0-1.7,0.7-1.7,2v9.2c0,1.3,0.4,2,1.7,2c1.1,0,1.5-0.7,1.5-1.8v-2.2
		h3.1v2.1c0,2.6-1.5,4.6-4.6,4.6c-3.2,0-4.7-2.1-4.7-4.6v-9.3c0-2.6,1.5-4.6,4.7-4.6c3.1,0,4.6,2.3,4.6,5v1.3L-0.5,637L-0.5,637z"/>
	<path class="st4" d="M-98.4,667.8l4.6-16.6h3l4.4,16.6v1.7h-12V667.8z M-89,667.2l-2.2-7.8c-0.3-1.5-0.9-3.5-1.1-4.7h-0.1
		c-0.2,1-0.8,2.8-1.1,4.4l-2.3,8.1L-89,667.2L-89,667.2z"/>
	<path class="st4" d="M-81.3,669.4h-3.1v-18.1h4.4c3.5,0,5.3,1.5,5.3,5.3c0,2.9-1.1,4.1-2.2,4.5l2.6,8.2h-3.1l-2.2-7.5
		c-0.4,0.1-1,0.1-1.6,0.1V669.4z M-81.3,659.5h1.1c1.7,0,2.3-0.6,2.3-2.8s-0.6-2.8-2.3-2.8h-1.1C-81.3,653.9-81.3,659.5-81.3,659.5z
		"/>
	<path class="st4" d="M-66.2,657.4V656c0-1.5-0.7-2.2-1.5-2.2c-1.2,0-1.7,0.7-1.7,2v9.2c0,1.3,0.4,2,1.7,2c1.1,0,1.5-0.7,1.5-1.8
		v-2.2h3.1v2.1c0,2.6-1.5,4.6-4.6,4.6c-3.2,0-4.7-2.1-4.7-4.6v-9.3c0-2.6,1.5-4.6,4.7-4.6c3.1,0,4.6,2.3,4.6,5v1.3L-66.2,657.4
		L-66.2,657.4z"/>
	<path class="st4" d="M-60.7,669.4v-18.1h3.1v7.4h3.3v-7.4h3.1v18.1h-3.1v-8h-3.3v8L-60.7,669.4L-60.7,669.4z"/>
	<path class="st4" d="M-48.7,669.4v-18.1h8.3v2.7h-5.2v4.6h4v2.7h-4v5.3h5.6v2.7L-48.7,669.4L-48.7,669.4z"/>
	<path class="st4" d="M-35.7,654.1h-3v-2.7h9.1v2.7h-3v15.4h-3.1L-35.7,654.1L-35.7,654.1z"/>
	<path class="st4" d="M-21.4,669.4h-3.1v-7.5l-3.8-10.5h3.1l2.2,6.9h0.1l2.1-6.9h3.1l-3.8,10.6V669.4z"/>
	<path class="st4" d="M-15.9,669.4v-18.1h4.5c3.8,0,5.6,1.5,5.6,5.3c0,3.9-1.8,5.3-5.6,5.3h-1.3v7.4L-15.9,669.4L-15.9,669.4z
		 M-12.8,659.5h1.2c2,0,2.7-0.6,2.7-2.8s-0.6-2.8-2.7-2.8h-1.2V659.5z"/>
	<path class="st4" d="M-3.7,669.4v-18.1h8.3v2.7h-5.2v4.6h4v2.7h-4v5.3H5v2.7L-3.7,669.4L-3.7,669.4z"/>
	<path class="st4" d="M13,655.8c-0.1-1.5-0.9-2-1.7-2c-1,0-1.5,0.7-1.5,1.8c0,3.1,6.3,4.5,6.3,9.5c0,3-2,4.6-4.9,4.6
		c-2.9,0-4.5-2.3-4.6-5l2.9-0.4c0.1,1.8,0.9,2.7,1.9,2.7c1.1,0,1.8-0.6,1.8-1.7c0-3.6-6.3-4.5-6.3-9.7c0-2.9,1.8-4.5,4.8-4.5
		c2.5,0,4,1.8,4.3,4.4L13,655.8z"/>
</g>
<path class="st3" d="M-41.1,573.8c-5,0-9.1,4.1-9.1,9.1s4.1,9.1,9.1,9.1s9.1-4.1,9.1-9.1S-36.1,573.8-41.1,573.8z M-32.4,582.8
	c0,1.5-0.4,2.9-1,4.2l-7.4-12.8C-36.2,574.2-32.4,578.1-32.4,582.8z M-37.9,580h-6.3l3.1-5.5L-37.9,580z M-41.1,586.3
	c-1.5,0-2.7-1.2-2.7-2.7c0-1.5,1.2-2.7,2.7-2.7c1.5,0,2.7,1.2,2.7,2.7S-39.6,586.3-41.1,586.3z M-44.6,586.9h-3.6l3.6-6.2V586.9z
	 M-37.6,580.6l3.6,6.2h-3.6V580.6z M-41.3,574.2l-7.4,12.8c-0.7-1.2-1-2.7-1-4.2C-49.8,578.1-46,574.2-41.3,574.2z M-41.1,591.5
	c-3.2,0-6-1.7-7.5-4.3h15C-35.1,589.8-37.9,591.5-41.1,591.5z"/>
</svg>
