<?xml version="1.0" encoding="utf-8"?>
<!-- Generator: Adobe Illustrator 19.0.0, SVG Export Plug-In . SVG Version: 6.00 Build 0)  -->
<!DOCTYPE svg PUBLIC "-//W3C//DTD SVG 1.1//EN" "http://www.w3.org/Graphics/SVG/1.1/DTD/svg11.dtd">
<svg version="1.1" id="Layer_5" xmlns="http://www.w3.org/2000/svg" xmlns:xlink="http://www.w3.org/1999/xlink" x="0px" y="0px"
	 viewBox="0 0 456.3 150.6" enable-background="new 0 0 456.3 150.6" xml:space="preserve">
<circle fill="#F7941E" cx="75.3" cy="75.3" r="75.3"/>
<polygon points="69.1,47.3 85.6,47.3 69.2,112.2 81.6,112.2 98,47.3 114.5,47.3 93,132.8 47.6,132.8 "/>
<polygon points="145.4,47.3 161.8,47.3 140.3,132.8 123.8,132.8 124,83.4 111.5,132.8 95,132.8 116.5,47.3 133,47.3 134.3,91.3 "/>
<polygon points="142.3,132.8 158.8,132.8 180.4,47.3 163.9,47.3 "/>
<polygon points="160.9,132.8 195.8,132.8 200.1,116.5 165,116.5 "/>
<polygon points="178.4,63.5 213.2,63.5 217.5,47.3 182.4,47.3 "/>
<polygon points="214.5,132.8 231,132.8 247.8,65.5 231.4,65.5 "/>
<polygon points="215.2,63.5 264.9,63.5 269,47.3 219.5,47.3 "/>
<polygon points="249.5,132.8 266,132.8 287.9,47.3 271,47.3 "/>
<polygon points="297.4,82.4 280.9,82.4 276.7,98.6 293.3,98.6 284.7,132.8 301.4,132.8 322.7,47.3 306.2,47.3 "/>
<polygon points="303.2,132.8 319.7,132.8 341.2,47.3 324.7,47.3 "/>
<polyline points="343.2,47.3 321.4,132.8 370.9,132.8 375,116.5 342,116.5 355.3,63.6 388.3,63.6 392.5,47.3 "/>
<polygon points="439.8,47.3 418.2,132.8 451.2,132.8 456.3,112.2 439.9,112.2 456.3,47.3 "/>
<polygon points="169.5,98.6 204.4,98.6 208.6,82.4 173.6,82.4 "/>
<path d="M427.8,47.3h-6.6H411h-7.1h-9.4l-21.5,85.5h16.5l8.6-34.2h10.3l-8.5,34.2h16.4l21.5-85.5H427.8z M412.4,82.4H402l4.8-18.8
	h10.4L412.4,82.4z"/>
</svg>
